<svg width="40" height="40" viewBox="0 0 40 40" fill="none" xmlns="http://www.w3.org/2000/svg">
    <rect x="0.75" y="0.75" width="38.5" height="38.5" rx="9.25" stroke="#0066FF" stroke-width="1.5" />
    <mask id="mask0_4402_13344" style="mask-type:alpha" maskUnits="userSpaceOnUse" x="8" y="8" width="24" height="24">
        <rect x="8" y="8" width="24" height="24" fill="#C4C4C4" />
    </mask>
    <g mask="url(#mask0_4402_13344)"></g>
    <path d="M27.8 11C27.1374 11 26.6 11.5366 26.6 12.2V14.9784C25.1038 12.8945 22.6775 11.6 20 11.6C16.4563 11.6 13.3471 13.8628 12.2593 17.2325C12.0553 17.8629 12.4016 18.5405 13.0321 18.743C13.6655 18.9493 14.3401 18.6001 14.5434 17.9709C15.3088 15.5938 17.5025 14 20 14C21.8938 14 23.6098 14.9206 24.665 16.4H23C22.3374 16.4 21.8 16.9366 21.8 17.6C21.8 18.2634 22.3374 18.8 23 18.8H27.8C28.4626 18.8 29 18.2634 29 17.6V12.2C29 11.5366 28.4638 11 27.8 11ZM26.9675 21.26C26.333 21.0561 25.6595 21.403 25.4563 22.0321C24.6913 24.4063 22.4975 26 20 26C18.1063 26 16.3906 25.0794 15.335 23.6H17C17.6626 23.6 18.2 23.0634 18.2 22.4C18.2 21.7366 17.6626 21.2 17 21.2H12.2C11.5374 21.2 11 21.7366 11 22.4V27.8C11 28.4634 11.5374 29 12.2 29C12.8626 29 13.4 28.4634 13.4 27.8V25.0216C14.8963 27.1063 17.3225 28.4 19.9663 28.4C23.5081 28.4 26.6188 26.1372 27.7063 22.7675C27.9463 22.1375 27.5975 21.4288 26.9675 21.26Z" fill="#0066FF" />
</svg>
    