<svg width="32" height="32" viewBox="0 0 32 32" fill="none" xmlns="http://www.w3.org/2000/svg">
<g id="material-symbols:monetization-on-rounded">
<path id="Vector" d="M10.8 19.6666C11.1111 20.7333 11.5947 21.5946 12.2507 22.2506C12.9067 22.9066 13.7565 23.3564 14.8 23.6V24.1666C14.8 24.4777 14.9169 24.7502 15.1507 24.984C15.3845 25.2177 15.6565 25.3342 15.9667 25.3333C16.2778 25.3333 16.5502 25.2164 16.784 24.9826C17.0178 24.7488 17.1342 24.4768 17.1334 24.1666V23.6666C18.2445 23.4666 19.2 23.0333 20 22.3666C20.8 21.7 21.2 20.7111 21.2 19.4C21.2 18.4666 20.9334 17.6111 20.4 16.8333C19.8667 16.0555 18.8 15.3777 17.2 14.8C15.8667 14.3555 14.9445 13.9666 14.4334 13.6333C13.9222 13.3 13.6667 12.8444 13.6667 12.2666C13.6667 11.6888 13.8725 11.2333 14.284 10.9C14.6956 10.5666 15.2898 10.4 16.0667 10.4C16.7778 10.4 17.3334 10.572 17.7334 10.916C18.1334 11.26 18.4222 11.688 18.6 12.2L20.7334 11.3333C20.4889 10.5555 20.0391 9.87774 19.384 9.29996C18.7289 8.72218 18.0009 8.39996 17.2 8.33329V7.83329C17.2 7.52218 17.0831 7.24974 16.8494 7.01596C16.6156 6.78218 16.344 6.66574 16.0347 6.66663C15.7236 6.66663 15.4511 6.78351 15.2174 7.01729C14.9836 7.25107 14.8671 7.52307 14.868 7.83329V8.33329C13.7569 8.57774 12.8902 9.06663 12.268 9.79996C11.6458 10.5333 11.3342 11.3555 11.3334 12.2666C11.3334 13.3111 11.6391 14.1555 12.2507 14.8C12.8622 15.4444 13.8231 16 15.1334 16.4666C16.5334 16.9777 17.5058 17.4333 18.0507 17.8333C18.5956 18.2333 18.8676 18.7555 18.8667 19.4C18.8667 20.1333 18.6054 20.6724 18.0827 21.0173C17.56 21.3622 16.9325 21.5342 16.2 21.5333C15.4667 21.5333 14.8165 21.3057 14.2494 20.8506C13.6822 20.3955 13.2658 19.712 13 18.8L10.8 19.6666ZM16 29.3333C14.1556 29.3333 12.4222 28.9831 10.8 28.2826C9.1778 27.5822 7.76669 26.6324 6.56669 25.4333C5.36669 24.2333 4.41691 22.8222 3.71735 21.2C3.0178 19.5777 2.66758 17.8444 2.66669 16C2.66669 14.1555 3.01691 12.4222 3.71735 10.8C4.4178 9.17774 5.36758 7.76663 6.56669 6.56663C7.76669 5.36663 9.1778 4.41685 10.8 3.71729C12.4222 3.01774 14.1556 2.66751 16 2.66663C17.8445 2.66663 19.5778 3.01685 21.2 3.71729C22.8222 4.41774 24.2334 5.36752 25.4334 6.56663C26.6334 7.76663 27.5836 9.17774 28.284 10.8C28.9845 12.4222 29.3342 14.1555 29.3334 16C29.3334 17.8444 28.9831 19.5777 28.2827 21.2C27.5822 22.8222 26.6325 24.2333 25.4334 25.4333C24.2334 26.6333 22.8222 27.5835 21.2 28.284C19.5778 28.9844 17.8445 29.3342 16 29.3333Z" fill="white"/>
</g>
</svg>
