<svg width="19" height="22" viewBox="0 0 19 22" fill="none" xmlns="http://www.w3.org/2000/svg">
    <path d="M16.497 5.76367C16.497 5.87629 16.497 5.98892 16.3844 6.10154C15.4834 10.6063 12.5553 12.0704 8.72621 12.0704H6.81165C6.36117 12.0704 5.91071 12.4083 5.91071 12.8588L4.89711 19.1655L4.67188 20.9674C4.67188 21.3053 4.89711 21.5305 5.12235 21.5305H8.61359C9.06407 21.5305 9.40193 21.1927 9.40193 20.8548V20.6296L10.0777 16.5752V16.35C10.1903 15.8995 10.5281 15.6743 10.866 15.6743H11.4291C14.8077 15.6743 17.398 14.3228 18.0737 10.3811C18.4115 8.6918 18.1863 7.34036 17.398 6.4394C17.1727 6.21416 16.8349 5.98891 16.497 5.76367Z" fill="#2199D6" />
    <path d="M15.5965 5.42477C15.4839 5.42477 15.3712 5.31216 15.146 5.31216C15.0334 5.31216 14.8081 5.19953 14.6955 5.19953C14.1324 5.08691 13.5693 5.08691 13.0062 5.08691H7.82568C7.71306 5.08691 7.60043 5.08691 7.48781 5.19953C7.26257 5.31215 7.03734 5.53739 7.03734 5.76263L5.91113 12.7451V12.9703C6.02375 12.5199 6.3616 12.182 6.81208 12.182H8.72664C12.5557 12.182 15.4838 10.6053 16.3848 6.21312C16.3848 6.1005 16.3848 5.98788 16.4974 5.87526C16.2722 5.76264 16.047 5.65002 15.8217 5.5374C15.7091 5.42478 15.5965 5.42477 15.5965 5.42477Z" fill="#252C5E" />
    <path d="M7.03749 5.76288C7.03749 5.53764 7.26273 5.3124 7.48797 5.19978C7.60059 5.19978 7.71321 5.08716 7.82583 5.08716H13.0064C13.5695 5.08716 14.2452 5.08716 14.6957 5.19978C14.8083 5.19978 15.0335 5.19978 15.1462 5.3124C15.2588 5.3124 15.3714 5.42502 15.5966 5.42502C15.7093 5.42502 15.7092 5.42502 15.8219 5.53764C16.0471 5.65026 16.2724 5.76288 16.4976 5.8755C16.7228 4.1862 16.4976 3.05999 15.5966 2.04641C14.583 0.920205 12.7811 0.469727 10.5287 0.469727H3.88412C3.43364 0.469727 2.98316 0.807584 2.98316 1.25807L0.280273 18.6016C0.280273 18.9395 0.505514 19.2773 0.843375 19.2773H4.8977L5.91129 12.7453L7.03749 5.76288Z" fill="#263577" />
</svg>