<svg width="26" height="26" viewBox="0 0 26 26" fill="none" xmlns="http://www.w3.org/2000/svg">
<g id="settings 1">
<path id="Vector" d="M13 15.0001V23.0001H5C5 20.8783 5.84285 18.8435 7.34315 17.3432C8.84344 15.8429 10.8783 15.0001 13 15.0001ZM13 14.0001C9.685 14.0001 7 11.3151 7 8.00006C7 4.68506 9.685 2.00006 13 2.00006C16.315 2.00006 19 4.68506 19 8.00006C19 11.3151 16.315 14.0001 13 14.0001ZM22.446 21.0321L23.95 22.5361L22.536 23.9501L21.032 22.4461C20.1933 22.9406 19.2031 23.1122 18.247 22.9288C17.2908 22.7455 16.4343 22.2196 15.8381 21.45C15.2419 20.6803 14.9469 19.7196 15.0083 18.7479C15.0698 17.7763 15.4835 16.8604 16.1719 16.172C16.8604 15.4836 17.7762 15.0698 18.7479 15.0084C19.7195 14.9469 20.6802 15.242 21.4499 15.8382C22.2196 16.4344 22.7454 17.2909 22.9288 18.247C23.1121 19.2032 22.9405 20.1934 22.446 21.0321ZM19 21.0001C19.5304 21.0001 20.0391 20.7893 20.4142 20.4143C20.7893 20.0392 21 19.5305 21 19.0001C21 18.4696 20.7893 17.9609 20.4142 17.5858C20.0391 17.2108 19.5304 17.0001 19 17.0001C18.4696 17.0001 17.9609 17.2108 17.5858 17.5858C17.2107 17.9609 17 18.4696 17 19.0001C17 19.5305 17.2107 20.0392 17.5858 20.4143C17.9609 20.7893 18.4696 21.0001 19 21.0001Z" fill="white"/>
</g>
</svg>
