<svg width="32" height="32" viewBox="0 0 32 32" fill="none" xmlns="http://www.w3.org/2000/svg">
<g id="settings 1">
<path id="Vector" d="M16 18.6666V29.3333H5.33331C5.33331 26.5043 6.45712 23.7912 8.45751 21.7908C10.4579 19.7904 13.171 18.6666 16 18.6666ZM16 17.3333C11.58 17.3333 7.99998 13.7533 7.99998 9.33331C7.99998 4.91331 11.58 1.33331 16 1.33331C20.42 1.33331 24 4.91331 24 9.33331C24 13.7533 20.42 17.3333 16 17.3333ZM19.46 25.0826C19.2909 24.3712 19.2909 23.63 19.46 22.9186L18.1373 22.1546L19.4706 19.8453L20.7933 20.6093C21.3242 20.1064 21.9659 19.7356 22.6666 19.5266V17.9999H25.3333V19.5266C26.0426 19.7373 26.6826 20.1133 27.2066 20.6093L28.5293 19.8453L29.8626 22.1546L28.54 22.9186C28.7088 23.6296 28.7088 24.3703 28.54 25.0813L29.8626 25.8453L28.5293 28.1546L27.2066 27.3906C26.6758 27.8934 26.034 28.2643 25.3333 28.4733V29.9999H22.6666V28.4733C21.9659 28.2643 21.3242 27.8934 20.7933 27.3906L19.4706 28.1546L18.1373 25.8453L19.46 25.0826ZM24 22.6666C23.6464 22.6666 23.3072 22.8071 23.0572 23.0571C22.8071 23.3072 22.6666 23.6463 22.6666 23.9999C22.6666 24.3536 22.8071 24.6927 23.0572 24.9428C23.3072 25.1928 23.6464 25.3333 24 25.3333C24.3536 25.3333 24.6927 25.1928 24.9428 24.9428C25.1928 24.6927 25.3333 24.3536 25.3333 23.9999C25.3333 23.6463 25.1928 23.3072 24.9428 23.0571C24.6927 22.8071 24.3536 22.6666 24 22.6666Z" fill="white"/>
</g>
</svg>
