<svg width="32" height="32" viewBox="0 0 32 32" fill="none" xmlns="http://www.w3.org/2000/svg">
<g clip-path="url(#clip0_107_0)">
<rect width="32" height="32" rx="12" fill="white"/>
<path d="M16.0597 20.7634C14.0515 18.7234 10.8609 15.9294 8.97426 14.4632C7.09597 13.0055 6.44612 12.5698 6.43773 12.5698C5.65372 14.1114 5.11707 16.277 5.11707 18.1244C5.11707 21.5551 6.63898 24.6298 9.04134 26.7159C11.3473 28.5591 14.5672 28.0061 16.1394 26.5358C17.7116 25.0697 18.068 22.7993 16.0597 20.7634Z" fill="url(#paint0_linear_107_0)"/>
<path d="M22.3689 14.7367C19.6184 11.674 16.0586 9.02195 14.3311 7.82788C12.8133 6.77627 11.6561 6.21484 11.6561 6.21484C10.9768 13.572 14.3269 18.9725 15.8783 20.5856C15.937 20.6442 15.9999 20.7071 16.0544 20.7657C18.0628 22.8061 17.7064 25.0728 16.1341 26.5433C14.5617 28.0139 11.3416 28.567 9.03552 26.7235C9.66865 27.2723 10.3605 27.75 11.1026 28.1522C13.2913 29.2122 18.3018 29.7946 21.9538 26.3422C25.61 22.8815 25.1152 17.7994 22.3689 14.7367Z" fill="url(#paint1_linear_107_0)"/>
<path d="M25.2329 10.8389L17.4354 1.5C17.6366 3.83368 18.2487 10.089 22.3612 14.7354C25.1113 17.7981 25.6018 22.8802 21.9504 26.3367C18.299 29.7891 13.2893 29.2109 11.101 28.1467C12.7066 29.0098 14.5428 29.5 16.4921 29.5C22.7763 29.5 27.874 24.4053 27.874 18.1249C27.874 15.3555 26.8805 12.8123 25.2329 10.8389Z" fill="url(#paint2_linear_107_0)"/>
<path d="M9.3219 14.7344C11.1731 16.2099 13.9876 18.6872 15.8724 20.586C14.3227 18.9722 10.9763 13.5691 11.659 6.20428C10.2349 8.04863 8.91983 10.9325 9.3219 14.7344Z" fill="url(#paint3_linear_107_0)"/>
<path d="M14.3346 7.82707C16.0564 9.02125 19.6131 11.6736 22.3613 14.7366C18.2516 10.0897 17.6399 3.83389 17.4389 1.5C16.3915 2.40087 14.6613 4.299 14.1544 7.70137C14.2131 7.74327 14.2759 7.78517 14.3346 7.82707Z" fill="url(#paint4_linear_107_0)"/>
<mask id="mask0_107_0" style="mask-type:alpha" maskUnits="userSpaceOnUse" x="5" y="6" width="23" height="24">
<circle cx="16.5" cy="18.1145" r="11.3834" fill="#D9D9D9"/>
</mask>
<g mask="url(#mask0_107_0)">
<g opacity="0.72" filter="url(#filter0_bf_107_0)">
<path d="M15.5442 22.1672C11.6764 27.2563 2.70714 23.298 3.02489 27.7602C16.844 38.3962 26.8656 28.4632 30.1491 22.1672C32.4067 17.8383 33.6918 -1.71055 15.5442 22.1672Z" fill="url(#paint5_radial_107_0)" fill-opacity="0.1"/>
</g>
</g>
</g>
<defs>
<filter id="filter0_bf_107_0" x="-59.7222" y="-52.2131" width="153.881" height="147.397" filterUnits="userSpaceOnUse" color-interpolation-filters="sRGB">
<feFlood flood-opacity="0" result="BackgroundImageFix"/>
<feGaussianBlur in="BackgroundImageFix" stdDeviation="31.3694"/>
<feComposite in2="SourceAlpha" operator="in" result="effect1_backgroundBlur_107_0"/>
<feBlend mode="normal" in="SourceGraphic" in2="effect1_backgroundBlur_107_0" result="shape"/>
<feGaussianBlur stdDeviation="6.97099" result="effect2_foregroundBlur_107_0"/>
</filter>
<linearGradient id="paint0_linear_107_0" x1="14.3784" y1="27.966" x2="8.40041" y2="11.8037" gradientUnits="userSpaceOnUse">
<stop offset="0.2081" stop-color="#D84999"/>
<stop offset="1" stop-color="#EF5F3C"/>
</linearGradient>
<linearGradient id="paint1_linear_107_0" x1="13.835" y1="9.85799" x2="23.157" y2="25.2154" gradientUnits="userSpaceOnUse">
<stop offset="0.1595" stop-color="#557CFF"/>
<stop offset="0.9865" stop-color="#2255FF"/>
</linearGradient>
<linearGradient id="paint2_linear_107_0" x1="28.8002" y1="26.3508" x2="17.4228" y2="1.74087" gradientUnits="userSpaceOnUse">
<stop stop-color="#EF5F3C"/>
<stop offset="1" stop-color="#FF8466"/>
</linearGradient>
<linearGradient id="paint3_linear_107_0" x1="12.5604" y1="6.20428" x2="12.5604" y2="20.586" gradientUnits="userSpaceOnUse">
<stop offset="0.229167" stop-color="#8AA5FF"/>
<stop offset="0.932292" stop-color="#E8EDFF"/>
</linearGradient>
<linearGradient id="paint4_linear_107_0" x1="15.3052" y1="3.82398" x2="20.5482" y2="13.7711" gradientUnits="userSpaceOnUse">
<stop offset="0.161458" stop-color="#FF8466" stop-opacity="0.75"/>
<stop offset="0.692708" stop-color="#FFCDC1"/>
</linearGradient>
<radialGradient id="paint5_radial_107_0" cx="0" cy="0" r="1" gradientUnits="userSpaceOnUse" gradientTransform="translate(13.1718 15.6587) rotate(55.6785) scale(19.8022 33.2695)">
<stop offset="0.484367" stop-color="#D9D9D9" stop-opacity="0"/>
<stop offset="0.775207" stop-color="#D9D9D9"/>
</radialGradient>
<clipPath id="clip0_107_0">
<rect width="32" height="32" rx="12" fill="white"/>
</clipPath>
</defs>
</svg>
