<svg width="40" height="40" viewBox="0 0 40 40" fill="none" xmlns="http://www.w3.org/2000/svg">
    <rect width="40" height="40" rx="8" fill="#0066FF" />
    <path d="M25.5001 20C26.9587 20 28.3577 20.5795 29.3891 21.6109C30.4206 22.6424 31.0001 24.0413 31.0001 25.5C31.0001 26.9587 30.4206 28.3576 29.3891 29.3891C28.3577 30.4205 26.9587 31 25.5001 31C24.0414 31 22.6424 30.4205 21.611 29.3891C20.5795 28.3576 20.0001 26.9587 20.0001 25.5C20.0001 24.0413 20.5795 22.6424 21.611 21.6109C22.6424 20.5795 24.0414 20 25.5001 20ZM20.0221 22C19.7223 22.4675 19.484 22.9716 19.3131 23.5H12.2531C12.0541 23.5 11.8634 23.579 11.7227 23.7197C11.5821 23.8603 11.5031 24.0511 11.5031 24.25V25.157C11.5031 25.813 11.7891 26.437 12.2871 26.864C13.5451 27.945 15.4401 28.5 18.0001 28.5C18.5991 28.5 19.1611 28.47 19.6881 28.41C19.9371 28.91 20.2511 29.373 20.6171 29.79C19.8151 29.93 18.9421 30 18.0001 30C15.1101 30 12.8721 29.344 11.3091 28C10.8994 27.648 10.5706 27.2116 10.3452 26.7208C10.1198 26.2299 10.0031 25.6961 10.0031 25.156V24.249C10.0033 23.6524 10.2405 23.0804 10.6624 22.6587C11.0843 22.2369 11.6565 22 12.2531 22H20.0231H20.0221ZM23.0921 22.966L23.0241 23.024L22.9661 23.094C22.9084 23.1775 22.8776 23.2766 22.8776 23.378C22.8776 23.4795 22.9084 23.5785 22.9661 23.662L23.0241 23.732L24.7941 25.501L23.0261 27.268L22.9681 27.337C22.9102 27.4206 22.8792 27.5198 22.8792 27.6215C22.8792 27.7232 22.9102 27.8224 22.9681 27.906L23.0261 27.975L23.0961 28.033C23.1795 28.0906 23.2786 28.1215 23.3801 28.1215C23.4815 28.1215 23.5806 28.0906 23.6641 28.033L23.7341 27.975L25.5001 26.208L27.2701 27.978L27.3391 28.035C27.4226 28.0926 27.5216 28.1235 27.6231 28.1235C27.7245 28.1235 27.8236 28.0926 27.9071 28.035L27.9771 27.977L28.0341 27.907C28.0917 27.8235 28.1225 27.7245 28.1225 27.623C28.1225 27.5216 28.0917 27.4225 28.0341 27.339L27.9761 27.27L26.2071 25.5L27.9791 23.732L28.0371 23.662C28.0947 23.5785 28.1255 23.4795 28.1255 23.378C28.1255 23.2766 28.0947 23.1775 28.0371 23.094L27.9791 23.024L27.9091 22.967C27.8256 22.9094 27.7265 22.8785 27.6251 22.8785C27.5236 22.8785 27.4245 22.9094 27.3411 22.967L27.2721 23.024L25.5001 24.794L23.7301 23.024L23.6611 22.967C23.5899 22.9177 23.5071 22.8877 23.4209 22.88C23.3346 22.8723 23.2478 22.8871 23.1691 22.923L23.0931 22.966H23.0921ZM18.0001 10.005C18.6567 10.005 19.3068 10.1343 19.9135 10.3856C20.5201 10.6369 21.0713 11.0052 21.5356 11.4695C21.9999 11.9338 22.3682 12.485 22.6194 13.0916C22.8707 13.6982 23.0001 14.3484 23.0001 15.005C23.0001 15.6616 22.8707 16.3118 22.6194 16.9184C22.3682 17.525 21.9999 18.0762 21.5356 18.5405C21.0713 19.0048 20.5201 19.3731 19.9135 19.6244C19.3068 19.8757 18.6567 20.005 18.0001 20.005C16.674 20.005 15.4022 19.4782 14.4645 18.5405C13.5268 17.6029 13.0001 16.3311 13.0001 15.005C13.0001 13.6789 13.5268 12.4072 14.4645 11.4695C15.4022 10.5318 16.674 10.005 18.0001 10.005ZM18.0001 11.505C17.5404 11.505 17.0853 11.5955 16.6607 11.7714C16.236 11.9473 15.8502 12.2051 15.5252 12.5301C15.2002 12.8551 14.9424 13.241 14.7665 13.6656C14.5906 14.0903 14.5001 14.5454 14.5001 15.005C14.5001 15.4646 14.5906 15.9198 14.7665 16.3444C14.9424 16.769 15.2002 17.1549 15.5252 17.4799C15.8502 17.8049 16.236 18.0627 16.6607 18.2386C17.0853 18.4145 17.5404 18.505 18.0001 18.505C18.9283 18.505 19.8185 18.1363 20.4749 17.4799C21.1313 16.8235 21.5001 15.9333 21.5001 15.005C21.5001 14.0767 21.1313 13.1865 20.4749 12.5301C19.8185 11.8738 18.9283 11.505 18.0001 11.505Z" fill="white" />
</svg>    