<svg width="24" height="24" viewBox="0 0 24 24" fill="none" xmlns="http://www.w3.org/2000/svg">
    <path d="M21.1235 9.02282C21.7915 11.0744 21.7488 13.2911 21.0025 15.3155C20.2562 17.3399 18.8497 19.0538 17.01 20.1808C15.1702 21.3079 13.0044 21.7823 10.8619 21.5277C8.71946 21.273 6.72525 20.304 5.20097 18.777C3.67669 17.2501 2.71122 15.2542 2.4603 13.1113C2.20938 10.9683 2.68763 8.80339 3.81791 6.96559C4.9482 5.1278 6.66461 3.72433 8.69028 2.98158C10.7159 2.23882 12.9328 2.20009 14.9831 2.87162L13.7255 4.12802C13.6559 4.19762 13.5935 4.27202 13.5359 4.35122C11.8945 4.0199 10.1899 4.22567 8.67441 4.93808C7.15891 5.65049 5.91292 6.83173 5.12072 8.30709C4.32852 9.78245 4.03217 11.4736 4.2755 13.1304C4.51883 14.7872 5.28892 16.3218 6.47187 17.5071C7.65483 18.6923 9.18784 19.4654 10.8442 19.712C12.5005 19.9586 14.1922 19.6656 15.6692 18.8763C17.1461 18.087 18.3298 16.8433 19.0451 15.3292C19.7605 13.8151 19.9696 12.111 19.6415 10.4688C19.7236 10.4106 19.8007 10.3456 19.8719 10.2744L21.1223 9.02402L21.1235 9.02282ZM17.8775 10.8C18.1352 12.0638 17.9787 13.377 17.4313 14.5448C16.884 15.7127 15.9748 16.6731 14.8387 17.2837C13.7026 17.8942 12.4 18.1224 11.124 17.9344C9.84797 17.7464 8.66651 17.1523 7.75473 16.24C6.84295 15.3278 6.2494 14.146 6.06208 12.8699C5.87475 11.5938 6.10362 10.2913 6.71475 9.15553C7.32589 8.01972 8.28675 7.11109 9.4549 6.56432C10.623 6.01754 11.9363 5.86175 13.1999 6.12002V7.97402C12.3044 7.70659 11.3452 7.7455 10.4743 8.0846C9.60336 8.4237 8.87041 9.04361 8.39148 9.8462C7.91255 10.6488 7.71501 11.5882 7.83012 12.5157C7.94524 13.4432 8.36643 14.3058 9.02703 14.967C9.68763 15.6282 10.5499 16.0501 11.4773 16.166C12.4047 16.2819 13.3443 16.0851 14.1473 15.6069C14.9503 15.1287 15.5708 14.3962 15.9107 13.5256C16.2505 12.6549 16.2902 11.6958 16.0235 10.8H17.8775ZM11.9975 13.8C12.2736 13.8002 12.546 13.7368 12.7936 13.6149C13.0413 13.4929 13.2576 13.3157 13.4258 13.0968C13.594 12.8779 13.7096 12.6232 13.7636 12.3525C13.8177 12.0818 13.8088 11.8023 13.7375 11.5356L15.6359 9.63602L15.6719 9.60002H18.5999C18.6788 9.60016 18.7569 9.58476 18.8298 9.5547C18.9027 9.52464 18.9689 9.48051 19.0247 9.42482L21.4247 7.02482C21.5089 6.94091 21.5662 6.8339 21.5894 6.71737C21.6127 6.60084 21.6008 6.48003 21.5553 6.37027C21.5098 6.2605 21.4327 6.16671 21.3338 6.1008C21.235 6.03488 21.1188 5.99981 20.9999 6.00002H17.9999V3.00002C17.9999 2.88144 17.9648 2.76553 17.8989 2.66692C17.833 2.56831 17.7395 2.49143 17.6299 2.44598C17.5204 2.40053 17.3999 2.38854 17.2835 2.41155C17.1672 2.43455 17.0603 2.49151 16.9763 2.57522L14.5763 4.97522C14.5204 5.03095 14.4761 5.09715 14.4458 5.17005C14.4156 5.24294 14.4 5.32109 14.3999 5.40002V8.32802C14.3876 8.33969 14.3756 8.35169 14.3639 8.36402L12.4655 10.26C12.2176 10.1923 11.958 10.1785 11.7043 10.2194C11.4506 10.2604 11.2085 10.3551 10.9944 10.4973C10.7804 10.6396 10.5992 10.826 10.4631 11.044C10.3271 11.262 10.2392 11.5067 10.2055 11.7615C10.1718 12.0163 10.193 12.2753 10.2678 12.5213C10.3425 12.7672 10.469 12.9943 10.6387 13.1872C10.8085 13.3802 11.0175 13.5347 11.2519 13.6401C11.4863 13.7456 11.7405 13.7997 11.9975 13.7988V13.8Z" fill="white" />
</svg>
    