<svg width="40" height="40" viewBox="0 0 40 40" fill="none" xmlns="http://www.w3.org/2000/svg">
    <rect width="40" height="40" rx="8" fill="#0066FF" />
    <path fill-rule="evenodd" clip-rule="evenodd" d="M15.5 25.25C15.5 25.0511 15.579 24.8603 15.7196 24.7197C15.8603 24.579 16.0511 24.5 16.25 24.5H29.75C29.9489 24.5 30.1396 24.579 30.2803 24.7197C30.421 24.8603 30.5 25.0511 30.5 25.25C30.5 25.4489 30.421 25.6397 30.2803 25.7803C30.1396 25.921 29.9489 26 29.75 26H16.25C16.0511 26 15.8603 25.921 15.7196 25.7803C15.579 25.6397 15.5 25.4489 15.5 25.25ZM15.5 19.25C15.5 19.0511 15.579 18.8603 15.7196 18.7197C15.8603 18.579 16.0511 18.5 16.25 18.5H29.75C29.9489 18.5 30.1396 18.579 30.2803 18.7197C30.421 18.8603 30.5 19.0511 30.5 19.25C30.5 19.4489 30.421 19.6397 30.2803 19.7803C30.1396 19.921 29.9489 20 29.75 20H16.25C16.0511 20 15.8603 19.921 15.7196 19.7803C15.579 19.6397 15.5 19.4489 15.5 19.25ZM15.5 13.25C15.5 13.0511 15.579 12.8603 15.7196 12.7197C15.8603 12.579 16.0511 12.5 16.25 12.5H29.75C29.9489 12.5 30.1396 12.579 30.2803 12.7197C30.421 12.8603 30.5 13.0511 30.5 13.25C30.5 13.4489 30.421 13.6397 30.2803 13.7803C30.1396 13.921 29.9489 14 29.75 14H16.25C16.0511 14 15.8603 13.921 15.7196 13.7803C15.579 13.6397 15.5 13.4489 15.5 13.25ZM13.781 11.219C13.8508 11.2887 13.9062 11.3714 13.944 11.4625C13.9818 11.5537 14.0013 11.6513 14.0013 11.75C14.0013 11.8486 13.9818 11.9463 13.944 12.0374C13.9062 12.1286 13.8508 12.2113 13.781 12.281L11.531 14.531C11.4613 14.6008 11.3785 14.6563 11.2874 14.6941C11.1963 14.7319 11.0986 14.7513 11 14.7513C10.9013 14.7513 10.8036 14.7319 10.7125 14.6941C10.6214 14.6563 10.5386 14.6008 10.469 14.531L9.71897 13.781C9.64924 13.7113 9.59392 13.6285 9.55619 13.5374C9.51845 13.4463 9.49902 13.3486 9.49902 13.25C9.49902 13.1514 9.51845 13.0537 9.55619 12.9626C9.59392 12.8715 9.64924 12.7887 9.71897 12.719C9.7887 12.6493 9.87149 12.594 9.9626 12.5562C10.0537 12.5185 10.1514 12.4991 10.25 12.4991C10.3486 12.4991 10.4462 12.5185 10.5373 12.5562C10.6285 12.594 10.7112 12.6493 10.781 12.719L11 12.9395L12.719 11.219C12.7886 11.1492 12.8714 11.0937 12.9625 11.0559C13.0536 11.0181 13.1513 10.9987 13.25 10.9987C13.3486 10.9987 13.4463 11.0181 13.5374 11.0559C13.6285 11.0937 13.7113 11.1492 13.781 11.219ZM13.781 17.219C13.8508 17.2887 13.9062 17.3714 13.944 17.4625C13.9818 17.5537 14.0013 17.6513 14.0013 17.75C14.0013 17.8486 13.9818 17.9463 13.944 18.0374C13.9062 18.1286 13.8508 18.2113 13.781 18.281L11.531 20.531C11.4613 20.6008 11.3785 20.6563 11.2874 20.6941C11.1963 20.7319 11.0986 20.7513 11 20.7513C10.9013 20.7513 10.8036 20.7319 10.7125 20.6941C10.6214 20.6563 10.5386 20.6008 10.469 20.531L9.71897 19.781C9.57814 19.6402 9.49902 19.4492 9.49902 19.25C9.49902 19.0508 9.57814 18.8598 9.71897 18.719C9.8598 18.5782 10.0508 18.4991 10.25 18.4991C10.4491 18.4991 10.6401 18.5782 10.781 18.719L11 18.9395L12.719 17.219C12.7886 17.1492 12.8714 17.0937 12.9625 17.0559C13.0536 17.0181 13.1513 16.9987 13.25 16.9987C13.3486 16.9987 13.4463 17.0181 13.5374 17.0559C13.6285 17.0937 13.7113 17.1492 13.781 17.219ZM13.781 23.219C13.8508 23.2887 13.9062 23.3714 13.944 23.4625C13.9818 23.5537 14.0013 23.6513 14.0013 23.75C14.0013 23.8486 13.9818 23.9463 13.944 24.0374C13.9062 24.1286 13.8508 24.2113 13.781 24.281L11.531 26.531C11.4613 26.6008 11.3785 26.6563 11.2874 26.6941C11.1963 26.7319 11.0986 26.7513 11 26.7513C10.9013 26.7513 10.8036 26.7319 10.7125 26.6941C10.6214 26.6563 10.5386 26.6008 10.469 26.531L9.71897 25.781C9.57814 25.6402 9.49902 25.4492 9.49902 25.25C9.49902 25.0508 9.57814 24.8598 9.71897 24.719C9.8598 24.5782 10.0508 24.499 10.25 24.499C10.4491 24.499 10.6401 24.5782 10.781 24.719L11 24.9395L12.719 23.219C12.7886 23.1492 12.8714 23.0937 12.9625 23.0559C13.0536 23.0181 13.1513 22.9987 13.25 22.9987C13.3486 22.9987 13.4463 23.0181 13.5374 23.0559C13.6285 23.0937 13.7113 23.1492 13.781 23.219Z" fill="white" />
</svg>
    