<svg width="20" height="20" viewBox="0 0 20 20" fill="none" xmlns="http://www.w3.org/2000/svg">
    <circle cx="10" cy="10" r="10" fill="url(#paint0_linear_646_10435)"/>
    <g clip-path="url(#clip0_646_10435)">
    <path fill-rule="evenodd" clip-rule="evenodd" d="M7.87373 4.87469C8.42357 4.84937 8.59889 4.84375 9.99951 4.84375C11.4001 4.84375 11.5754 4.84984 12.1248 4.87469C12.6742 4.89953 13.0492 4.98719 13.3773 5.11422C13.7209 5.24406 14.0326 5.44703 14.2904 5.70953C14.5529 5.96687 14.7554 6.27813 14.8848 6.62219C15.0123 6.95031 15.0995 7.32531 15.1248 7.87375C15.1501 8.42453 15.1558 8.59984 15.1558 10C15.1558 11.4006 15.1497 11.5759 15.1248 12.1258C15.1 12.6742 15.0123 13.0492 14.8848 13.3773C14.7554 13.7214 14.5526 14.0332 14.2904 14.2909C14.0326 14.5534 13.7209 14.7559 13.3773 14.8853C13.0492 15.0128 12.6742 15.1 12.1258 15.1253C11.5754 15.1506 11.4001 15.1562 9.99951 15.1562C8.59889 15.1562 8.42357 15.1502 7.87373 15.1253C7.32529 15.1005 6.95029 15.0128 6.62217 14.8853C6.27807 14.7559 5.9663 14.5531 5.70857 14.2909C5.44625 14.0334 5.24325 13.7218 5.11373 13.3778C4.9867 13.0497 4.89951 12.6747 4.8742 12.1262C4.84889 11.5755 4.84326 11.4002 4.84326 10C4.84326 8.59938 4.84936 8.42406 4.8742 7.87469C4.89904 7.32531 4.9867 6.95031 5.11373 6.62219C5.24344 6.27816 5.4466 5.96655 5.70904 5.70906C5.96641 5.4468 6.27786 5.2438 6.6217 5.11422C6.94982 4.98719 7.32482 4.9 7.87326 4.87469H7.87373ZM12.0831 5.80281C11.5394 5.77797 11.3762 5.77281 9.99951 5.77281C8.62279 5.77281 8.45967 5.77797 7.91592 5.80281C7.41295 5.82578 7.14014 5.90969 6.95826 5.98047C6.71779 6.07422 6.54576 6.18531 6.36529 6.36578C6.19422 6.53221 6.06256 6.73482 5.97998 6.95875C5.9092 7.14062 5.82529 7.41344 5.80232 7.91641C5.77748 8.46016 5.77232 8.62328 5.77232 10C5.77232 11.3767 5.77748 11.5398 5.80232 12.0836C5.82529 12.5866 5.9092 12.8594 5.97998 13.0413C6.06248 13.2648 6.1942 13.4678 6.36529 13.6342C6.5317 13.8053 6.73467 13.937 6.95826 14.0195C7.14014 14.0903 7.41295 14.1742 7.91592 14.1972C8.45967 14.222 8.62232 14.2272 9.99951 14.2272C11.3767 14.2272 11.5394 14.222 12.0831 14.1972C12.5861 14.1742 12.8589 14.0903 13.0408 14.0195C13.2812 13.9258 13.4533 13.8147 13.6337 13.6342C13.8048 13.4678 13.9365 13.2648 14.019 13.0413C14.0898 12.8594 14.1737 12.5866 14.1967 12.0836C14.2215 11.5398 14.2267 11.3767 14.2267 10C14.2267 8.62328 14.2215 8.46016 14.1967 7.91641C14.1737 7.41344 14.0898 7.14062 14.019 6.95875C13.9253 6.71828 13.8142 6.54625 13.6337 6.36578C13.4673 6.19472 13.2647 6.06307 13.0408 5.98047C12.8589 5.90969 12.5861 5.82578 12.0831 5.80281ZM9.34092 11.5895C9.70873 11.7426 10.1183 11.7633 10.4996 11.648C10.881 11.5327 11.2105 11.2886 11.4318 10.9573C11.6532 10.626 11.7527 10.2282 11.7133 9.83177C11.6739 9.43532 11.4981 9.06483 11.2159 8.78359C11.036 8.60382 10.8185 8.46616 10.579 8.38054C10.3396 8.29491 10.0841 8.26345 9.83099 8.28841C9.5779 8.31338 9.33349 8.39415 9.11536 8.5249C8.89722 8.65566 8.7108 8.83316 8.5695 9.04462C8.4282 9.25607 8.33554 9.49623 8.29819 9.74779C8.26084 9.99936 8.27974 10.2561 8.35351 10.4995C8.42729 10.7428 8.55411 10.9668 8.72485 11.1553C8.89559 11.3438 9.10599 11.4921 9.34092 11.5895ZM8.12545 8.12594C8.37155 7.87983 8.66372 7.68461 8.98528 7.55142C9.30683 7.41823 9.65147 7.34968 9.99951 7.34968C10.3476 7.34968 10.6922 7.41823 11.0137 7.55142C11.3353 7.68461 11.6275 7.87983 11.8736 8.12594C12.1197 8.37204 12.3149 8.66421 12.4481 8.98576C12.5813 9.30732 12.6498 9.65195 12.6498 10C12.6498 10.348 12.5813 10.6927 12.4481 11.0142C12.3149 11.3358 12.1197 11.628 11.8736 11.8741C11.3765 12.3711 10.7024 12.6503 9.99951 12.6503C9.2966 12.6503 8.62248 12.3711 8.12545 11.8741C7.62842 11.377 7.34919 10.7029 7.34919 10C7.34919 9.29709 7.62842 8.62297 8.12545 8.12594ZM13.2376 7.74437C13.2986 7.68684 13.3474 7.61766 13.3812 7.54093C13.415 7.46419 13.433 7.38145 13.4342 7.29762C13.4355 7.21379 13.4199 7.13057 13.3883 7.05288C13.3568 6.97519 13.31 6.90461 13.2507 6.84533C13.1915 6.78605 13.1209 6.73926 13.0432 6.70774C12.9655 6.67622 12.8823 6.66061 12.7985 6.66184C12.7146 6.66306 12.6319 6.68109 12.5551 6.71486C12.4784 6.74863 12.4092 6.79745 12.3517 6.85844C12.2398 6.97705 12.1786 7.13459 12.1809 7.29762C12.1833 7.46066 12.2491 7.61635 12.3644 7.73165C12.4797 7.84694 12.6354 7.91276 12.7985 7.91514C12.9615 7.91752 13.119 7.85626 13.2376 7.74437Z" fill="white"/>
    </g>
    <defs>
    <linearGradient id="paint0_linear_646_10435" x1="10" y1="0" x2="10" y2="20" gradientUnits="userSpaceOnUse">
    <stop stop-color="#A900E9"/>
    <stop offset="1" stop-color="#F7A23F"/>
    </linearGradient>
    <clipPath id="clip0_646_10435">
    <rect width="11.25" height="11.25" fill="white" transform="translate(4.37451 4.375)"/>
    </clipPath>
    </defs>
    </svg>
    