<svg width="265" height="56" viewBox="0 0 265 56" fill="none" xmlns="http://www.w3.org/2000/svg">
<path d="M120.346 39.8098L120.216 16.2471L114.88 12.9073L110.537 14.4554L114.459 12.6513L109.227 8.67454L120.353 15.6441L120.508 1.13059L121.002 11.5992L128.436 3.49126L125.479 7.5667L129.32 9.75461L125.144 7.92998L121.033 12.4818L121.519 23.652L128.137 19.3095L126.916 14.2582L128.602 19.0448L133.224 16.4376L121.547 24.4242L122.113 39.6822L120.348 39.8466L120.346 39.8098Z" fill="black"/>
<path d="M121.979 14.415C122.643 16.1214 125.171 16.2813 125.234 16.1747C125.266 16.148 125.108 16.0947 125.013 15.9347V15.6414C125.234 14.7349 125.202 14.4416 124.887 13.9883C124.887 13.9883 124.665 14.1216 124.413 14.095C124.223 14.0683 124.065 13.9883 123.97 13.9084C123.875 13.8284 123.812 13.6951 123.844 13.4817C123.875 13.2418 124.065 13.1351 124.065 13.1351C123.212 12.4952 122.643 12.9752 122.422 13.0552L122.074 12.8685C121.948 12.7619 121.853 12.6286 121.853 12.6286C121.853 12.6286 121.695 12.6019 121.758 12.7619L122.011 12.9218C122.169 13.0551 122.295 13.1884 122.295 13.1884C122.295 13.1884 121.695 13.6951 121.979 14.415ZM121.474 5.40309C121.474 5.40309 122.106 5.85635 122.927 5.64306C124.887 5.10982 124.981 3.05681 124.887 3.00348C124.855 2.97684 124.823 3.11014 124.634 3.16344H124.286C123.623 3.05678 123.401 2.9768 122.706 3.19009C122.359 3.29675 122.011 3.43006 121.505 3.88332C120.779 4.57655 121.189 5.08314 121.316 5.26978L121.095 5.56308C120.968 5.66974 120.81 5.72304 120.81 5.72304C120.81 5.72304 120.779 5.85635 120.968 5.80302L121.126 5.58973C121.316 5.50975 121.474 5.40309 121.474 5.40309ZM138.948 12.4153C138.885 12.3887 138.821 12.6019 138.474 12.7086C138.316 12.7619 138.063 12.7352 137.873 12.7086C136.736 12.522 136.293 12.3887 135.093 12.7619C134.461 12.9486 133.86 13.1619 133.007 13.9884C131.743 15.2149 132.47 16.0947 132.691 16.4147C132.723 16.468 132.533 16.7346 132.312 16.9213C132.091 17.1346 131.838 17.2412 131.838 17.2412C131.838 17.2412 131.775 17.4812 132.123 17.4012C132.154 17.4012 132.312 17.1346 132.407 17.0279C132.66 16.8146 132.944 16.6546 132.944 16.6546C132.944 16.6546 134.05 17.4545 135.504 17.0546C138.979 16.0947 139.137 12.522 138.948 12.4153ZM111.931 14.2817C111.9 14.255 111.963 14.0684 112.026 13.9351C112.121 13.7751 112.216 13.6685 112.216 13.6685C112.216 13.6685 112.216 13.5085 112.026 13.6151L111.931 13.8817C111.836 14.0417 111.71 14.2017 111.71 14.2017C111.71 14.2017 110.857 13.9351 110.098 14.415C108.329 15.5881 109.119 17.6945 109.245 17.7211C109.309 17.7211 109.277 17.5878 109.435 17.4545L109.783 17.3478C110.509 17.2412 110.794 17.2412 111.394 16.8412C111.71 16.6279 112.026 16.388 112.31 15.7481C112.784 14.8149 112.121 14.4417 111.931 14.2817ZM129.468 18.7876C128.11 18.7876 127.446 19.7208 127.446 19.7208C127.446 19.7208 127.162 19.6408 126.877 19.5341C126.751 19.4808 126.561 19.2942 126.498 19.2942C126.182 19.3208 126.308 19.4808 126.308 19.4808C126.308 19.4808 126.561 19.5075 126.814 19.6141C127.067 19.7208 127.32 19.8807 127.288 19.9341C127.225 20.254 126.909 21.1605 128.362 21.8804C129.342 22.3603 129.942 22.4137 130.511 22.4137C131.617 22.4403 131.933 22.227 132.849 21.8004C133.007 21.7204 133.197 21.6404 133.355 21.6404C133.671 21.6671 133.797 21.8271 133.829 21.7738C133.987 21.7204 132.66 18.7609 129.468 18.7876ZM117.998 7.18948C117.84 7.13615 114.838 9.0292 115.755 11.6154C116.134 12.7086 117.398 12.9752 117.398 12.9752C117.398 12.9752 117.398 13.2418 117.335 13.5085C117.303 13.6418 117.177 13.8284 117.177 13.8817C117.271 14.1217 117.461 13.9617 117.461 13.9617C117.461 13.9617 117.429 13.7484 117.492 13.5085C117.524 13.2952 117.65 13.0286 117.714 13.0286C118.093 13.0019 119.23 13.0019 119.641 11.6154C119.926 10.6823 119.799 10.2023 119.641 9.72243C119.357 8.81591 119.041 8.62927 118.282 8.01605C118.156 7.90939 117.998 7.77608 117.966 7.64277C117.903 7.34947 118.093 7.21613 117.998 7.18948ZM132.47 10.6289C132.723 10.6023 132.881 10.7356 132.912 10.7089C133.007 10.6023 131.459 8.25599 128.773 8.57594C127.636 8.70925 127.225 9.56243 127.225 9.56243C127.225 9.56243 126.972 9.53579 126.719 9.45577L126.372 9.29582C126.119 9.34915 126.245 9.48246 126.245 9.48246C126.245 9.48246 126.435 9.48246 126.688 9.53579C126.909 9.58912 127.13 9.69574 127.13 9.74907C127.13 10.0157 126.972 10.8156 128.331 11.2955C129.247 11.6154 129.721 11.5888 130.227 11.5355C131.175 11.4288 131.396 11.2422 132.091 10.7889C132.186 10.7356 132.344 10.6556 132.47 10.6289ZM124.318 18.8943C125.202 19.0542 125.803 18.521 125.803 18.521C125.803 18.521 125.992 18.601 126.15 18.7076L126.372 18.8943C126.593 18.9209 126.53 18.7876 126.53 18.7876C126.53 18.7876 126.372 18.7343 126.214 18.6277C126.087 18.521 125.929 18.3877 125.961 18.361C126.056 18.1744 126.435 17.5878 125.582 16.9479C125.013 16.4947 124.634 16.4147 124.255 16.3347C123.528 16.1747 123.275 16.2813 122.611 16.468L122.264 16.4946C122.074 16.4413 122.011 16.308 121.979 16.3347C121.821 16.4147 122.201 18.521 124.318 18.8943ZM108.519 9.96236C108.519 9.96236 108.708 9.90903 108.929 9.88238H109.245C109.403 9.77572 109.245 9.72243 109.245 9.72243C109.245 9.72243 109.087 9.77576 108.898 9.80241C108.708 9.82905 108.487 9.80241 108.487 9.77576C108.392 9.58912 108.139 8.9759 107.002 9.0292C106.243 9.08253 105.896 9.24249 105.548 9.42913C104.916 9.77572 104.822 9.98905 104.537 10.5223L104.348 10.7623C104.158 10.8422 104 10.7889 104 10.8422C104 10.9489 106.054 12.1487 107.823 11.1355C108.582 10.7089 108.519 9.96236 108.519 9.96236ZM119.294 16.4147C119.294 16.4147 119.357 16.2547 119.483 16.0947L119.704 15.9081C119.704 15.7214 119.578 15.8014 119.578 15.8014C119.578 15.8014 119.546 15.9347 119.42 16.068C119.325 16.2013 119.167 16.3346 119.136 16.308C118.883 16.2547 118.219 16.0147 117.524 16.7346C117.65 15.6948 116.86 15.2682 116.576 15.0549C116.513 15.0015 116.608 14.7083 116.703 14.4683C116.829 14.2283 117.018 14.0417 117.018 14.0417C117.018 14.0417 116.987 13.8017 116.703 13.9884C116.671 14.015 116.639 14.2817 116.576 14.415C116.45 14.7083 116.26 14.9482 116.26 14.9482C116.26 14.9482 114.87 14.5483 113.701 15.3748C110.92 17.3479 112.31 20.7073 112.532 20.734C112.626 20.734 112.563 20.5207 112.816 20.3073C112.942 20.2007 113.195 20.1474 113.385 20.1207C114.522 19.9341 114.996 19.9341 115.944 19.2142C116.26 18.9742 116.576 18.7076 116.892 18.281C116.892 18.6543 117.018 18.8676 117.24 19.2942L117.334 19.5875C117.303 19.7741 117.145 19.8275 117.176 19.8541C117.271 19.9341 119.704 19.4009 119.926 17.5878C119.957 16.8679 119.294 16.4147 119.294 16.4147ZM113.764 11.0822C113.764 11.0822 113.795 11.2422 113.764 11.4288L113.669 11.6688C113.764 11.8287 113.859 11.7221 113.859 11.7221C113.859 11.7221 113.827 11.5888 113.859 11.4288C113.89 11.2688 113.953 11.1089 113.985 11.1089C114.238 11.0822 114.996 11.0289 115.217 10.069C115.344 9.42913 115.249 9.10918 115.123 8.78923C114.87 8.17597 114.649 8.06935 114.143 7.69607L113.922 7.4561C113.859 7.29614 113.953 7.18948 113.922 7.16279C113.795 7.13615 111.9 8.52257 112.658 10.229C112.911 10.9489 113.764 11.0822 113.764 11.0822ZM124.697 4.65656C124.57 4.62991 122.991 6.30964 124.097 7.85606C124.57 8.52261 125.424 8.52261 125.424 8.52261C125.424 8.52261 125.487 8.68256 125.487 8.8692L125.455 9.13582C125.582 9.29578 125.645 9.16247 125.645 9.16247C125.645 9.16247 125.582 9.02916 125.582 8.86917C125.582 8.70921 125.582 8.52257 125.645 8.52257C125.898 8.44259 126.624 8.2826 126.624 7.32275C126.624 6.6562 126.466 6.3629 126.245 6.06964C125.866 5.50972 125.613 5.42974 125.013 5.13647L124.728 4.94983C124.665 4.78987 124.728 4.68324 124.697 4.65656ZM133.671 17.4545C132.754 17.4012 132.249 17.9878 132.249 17.9878C132.249 17.9878 132.059 17.9344 131.87 17.8278L131.649 17.6412C131.427 17.6412 131.522 17.7745 131.522 17.7745C131.522 17.7745 131.68 17.8011 131.838 17.8811C131.996 17.9611 132.154 18.0944 132.154 18.1211C132.091 18.3344 131.806 18.921 132.723 19.4809C133.355 19.8542 133.734 19.9075 134.113 19.9608C134.872 20.0408 135.093 19.9075 135.725 19.6675L136.072 19.5875C136.293 19.6141 136.357 19.7475 136.388 19.7208C136.483 19.6675 135.82 17.6145 133.671 17.4545ZM124.318 12.7619C124.665 13.3485 124.981 13.5351 125.297 13.7218C125.929 14.0684 126.182 14.0417 126.877 14.0951L127.225 14.175C127.383 14.2817 127.383 14.415 127.446 14.415C127.572 14.3884 128.078 12.3087 126.245 11.3488C125.487 10.9489 124.697 11.2688 124.697 11.2688C124.697 11.2688 124.571 11.1355 124.444 10.9755L124.349 10.7356C124.16 10.6556 124.16 10.7889 124.16 10.7889C124.16 10.7889 124.286 10.8689 124.381 11.0289C124.476 11.1622 124.539 11.3222 124.507 11.3488C124.381 11.4821 123.812 11.9087 124.318 12.7619ZM122.611 10.8156L122.548 11.0822C122.643 11.2421 122.738 11.1088 122.738 11.1088C122.738 11.1088 122.706 10.9755 122.706 10.8155C122.706 10.6556 122.769 10.4956 122.801 10.4689C123.054 10.4156 123.812 10.309 123.907 9.34911C123.97 8.70921 123.844 8.38926 123.686 8.096C123.37 7.50943 123.149 7.40277 122.58 7.08282L122.327 6.84284C122.232 6.68289 122.327 6.57623 122.295 6.54954C122.169 6.5229 120.431 8.04263 121.348 9.69571C121.727 10.3889 122.611 10.4689 122.611 10.4689C122.611 10.4689 122.643 10.6289 122.611 10.8156ZM125.392 20.7073C125.36 20.6807 125.329 20.4673 125.36 20.3074C125.392 20.1207 125.487 19.9874 125.487 19.9874C125.487 19.9874 125.424 19.8275 125.266 19.9874V20.2807C125.234 20.494 125.139 20.6807 125.139 20.6807C125.139 20.6807 124.097 20.6007 123.496 21.2939C122.043 22.9736 123.686 25 123.812 25C123.875 25 123.781 24.84 123.939 24.68L124.286 24.4934C125.013 24.2001 125.297 24.1468 125.771 23.5602C126.024 23.2403 126.245 22.9203 126.34 22.1738C126.466 21.054 125.645 20.814 125.392 20.7073ZM129.247 18.0144C129.247 18.0144 129.31 18.1744 129.468 18.0144V17.7211C129.5 17.5078 129.595 17.3478 129.595 17.3478C129.595 17.3478 130.637 17.4811 131.269 16.7879C132.786 15.1615 131.269 13.0818 131.143 13.0818C131.08 13.0818 131.143 13.2418 131.017 13.4018L130.669 13.5884C129.942 13.855 129.626 13.9084 129.121 14.4949C128.836 14.7882 128.615 15.1082 128.489 15.8547C128.299 16.9479 129.121 17.2145 129.373 17.3211C129.405 17.3478 129.405 17.5611 129.373 17.7211C129.342 17.881 129.247 18.0144 129.247 18.0144ZM111.046 9.80241C111.046 9.80241 111.11 9.98905 111.141 10.2023L111.11 10.4956C111.268 10.6556 111.331 10.5223 111.331 10.5223C111.331 10.5223 111.268 10.389 111.236 10.2023C111.204 10.0424 111.236 9.82905 111.299 9.80241C111.552 9.72243 112.405 9.5091 112.374 8.41595C112.342 7.66938 112.121 7.34943 111.9 7.02949C111.457 6.41623 111.173 6.30961 110.478 6.01631L110.162 5.80302C110.035 5.61638 110.13 5.48307 110.067 5.48307C109.94 5.45642 108.139 7.40277 109.467 9.16247C110.004 9.82902 111.046 9.80241 111.046 9.80241ZM120.147 7.40277C119.957 7.24281 119.862 7.08282 119.862 7.08282C119.862 7.08282 120.558 6.44292 120.273 5.58973C119.578 3.6167 116.671 3.48339 116.576 3.5634C116.545 3.61673 116.734 3.64338 116.797 3.83002C116.829 3.93668 116.797 4.06999 116.766 4.17662C116.608 4.81652 116.481 5.05649 116.766 5.74969C116.892 6.12297 117.082 6.46956 117.714 6.94951C118.662 7.69607 119.388 7.2961 119.641 7.18948C119.704 7.16283 119.894 7.29614 120.02 7.42945C120.178 7.56276 120.242 7.69607 120.242 7.69607C120.242 7.69607 120.431 7.7494 120.368 7.53611L120.147 7.40277ZM127.572 7.29614C127.636 7.32279 127.636 7.53611 127.572 7.69607C127.541 7.88271 127.446 8.01602 127.446 8.01602C127.446 8.01602 127.509 8.17597 127.667 8.01602V7.72272C127.699 7.50943 127.794 7.32279 127.794 7.32279C127.794 7.32279 128.299 7.37612 128.805 7.16283C128.805 7.24281 128.836 7.32279 128.836 7.37612C128.836 7.42945 128.552 7.58941 128.331 7.66942C128.046 7.7494 127.825 7.77608 127.825 7.77608C127.825 7.77608 127.667 7.93604 127.983 7.98937C128.015 7.98937 128.236 7.82941 128.394 7.77608C128.678 7.66942 128.994 7.61612 128.994 7.61612C128.994 7.61612 129.531 8.60262 130.89 8.70928C134.082 8.9759 135.725 6.14968 135.63 6.01637C135.598 5.96304 135.44 6.12304 135.124 6.12304C134.966 6.12304 134.777 6.01637 134.65 5.9364C133.797 5.42981 133.513 5.21652 132.407 5.13654C131.806 5.10989 131.238 5.08321 130.195 5.50982C130.163 5.53647 130.132 5.53647 130.1 5.56315C130.353 4.23002 129.373 3.00355 129.247 3.03023C129.184 3.03023 129.247 3.19019 129.121 3.35018L128.773 3.53682C128.046 3.80344 127.762 3.88342 127.256 4.46999C127.004 4.78994 126.751 5.10989 126.656 5.82977C126.498 6.92293 127.32 7.16283 127.572 7.29614ZM110.098 13.7751C110.383 13.4818 110.636 13.1618 110.794 12.4419C111.015 11.3488 110.225 11.0555 109.972 10.9489C109.94 10.9222 109.94 10.7089 110.004 10.5489C110.067 10.3623 110.162 10.229 110.162 10.229C110.162 10.229 110.098 10.069 109.94 10.229L109.909 10.5223C109.846 10.7356 109.751 10.8956 109.751 10.8956C109.751 10.8956 108.74 10.7356 108.045 11.4022C106.433 12.9752 107.887 15.1082 108.013 15.1082C108.076 15.1082 108.013 14.9483 108.139 14.7883L108.487 14.6017C109.245 14.3884 109.561 14.335 110.098 13.7751Z" fill="black"/>
<path d="M119.77 44.8996C119.723 44.6525 119.676 44.4833 119.676 44.4833C119.676 44.4833 119.645 44.6525 119.621 44.9142C119.592 45.1814 119.617 45.5152 119.637 45.855C119.658 46.1721 119.71 46.487 119.714 46.7547C119.735 47.0137 119.762 47.1869 119.762 47.1869C119.762 47.1869 119.811 47.0223 119.861 46.774C119.928 46.5338 119.905 46.1725 119.898 45.8108C119.862 45.4757 119.811 45.1402 119.77 44.8996Z" fill="black"/>
<path d="M114.417 49.3482C114.369 49.1042 114.322 48.9337 114.322 48.9337C114.322 48.9337 114.292 49.1012 114.268 49.3628C114.238 49.6318 114.264 49.9656 114.284 50.3063C114.305 50.6242 114.356 50.9387 114.36 51.205C114.381 51.4637 114.409 51.6372 114.409 51.6372C114.409 51.6372 114.458 51.4723 114.508 51.224C114.574 50.9825 114.551 50.6212 114.545 50.2612C114.508 49.9274 114.458 49.591 114.417 49.3482Z" fill="black"/>
<path d="M121.705 50.9769C121.677 50.7686 121.657 50.6625 121.652 50.4919C121.651 50.3364 121.662 50.18 121.672 50.0361C121.722 49.4496 121.698 49.0303 121.698 49.0303C121.698 49.0303 121.674 49.1261 121.629 49.2915C121.577 49.4518 121.523 49.6889 121.461 49.9828C121.434 50.1327 121.417 50.2999 121.406 50.4855C121.395 50.659 121.424 50.9073 121.456 51.065C121.521 51.4323 121.538 51.7898 121.573 52.1971C121.637 52.988 121.7 53.7793 121.747 54.3726C121.808 54.9668 121.849 55.3608 121.849 55.3608C121.849 55.3608 121.884 53.7613 121.804 52.1648C121.779 51.7786 121.761 51.3361 121.705 50.9769Z" fill="black"/>
<path d="M123.249 44.5408L123.464 45.358C123.653 45.8787 123.922 46.3491 124.089 46.8135C124.192 47.0283 124.243 47.302 124.284 47.5885C124.345 47.8781 124.34 48.0916 124.336 48.3911C124.33 48.947 124.272 49.5656 124.48 50.1804C124.574 50.4111 124.718 50.7024 124.902 50.8773C125.103 51.0599 125.288 51.102 125.477 51.2171C125.845 51.4169 126.191 51.7245 126.55 51.9741L127.628 52.7345L127.643 52.7079L127.639 52.7049L127.46 52.5356L127.498 52.5799L126.612 51.7932C126.259 51.5127 125.931 51.1802 125.559 50.9391C125.382 50.8128 125.166 50.7424 125.029 50.604C124.886 50.4528 124.788 50.2646 124.686 50.0017C124.543 49.5575 124.582 48.9784 124.597 48.4005C124.603 48.1281 124.588 47.7608 124.527 47.5005C124.483 47.2225 124.429 46.9445 124.307 46.6726C124.095 46.1244 123.847 45.7051 123.64 45.2231L123.4 44.4493L123.235 43.6408C123.135 43.0848 123.009 42.5354 122.861 42.0001C122.971 42.5543 123.055 43.1102 123.112 43.6807L123.249 44.5408Z" fill="black"/>
<path d="M128.111 50.113C128.016 50.11 127.91 50.0838 127.799 50.0662C127.7 50.034 127.594 49.9588 127.484 49.9158C127.258 49.8471 127.044 49.6013 126.769 49.5352L126.367 49.4248C126.236 49.4217 126.106 49.4187 125.981 49.4157C125.728 49.3964 125.508 49.4776 125.311 49.5008C124.924 49.579 124.665 49.6464 124.665 49.6464C124.665 49.6464 124.926 49.6864 125.317 49.7126C125.51 49.7199 125.743 49.7096 125.977 49.7418C126.096 49.7517 126.218 49.7624 126.341 49.7723L126.7 49.8991C126.946 49.9326 127.168 50.165 127.425 50.2324C127.675 50.3532 127.91 50.3592 128.105 50.327C128.496 50.247 128.749 50.3252 128.749 50.3252C128.749 50.3252 128.688 50.2917 128.581 50.2324C128.476 50.1684 128.299 50.1246 128.111 50.113Z" fill="black"/>
<path d="M113.986 47.7604L113.982 47.7632L113.981 47.7677L113.986 47.7604Z" fill="black"/>
<path d="M112.061 46.4634L112.429 46.4664C112.552 46.5003 112.672 46.5338 112.789 46.5647C113.021 46.6163 113.246 46.7074 113.434 46.768C113.816 46.8827 114.076 46.9342 114.076 46.9342C114.076 46.9342 113.837 46.7783 113.474 46.5652C113.287 46.4724 113.088 46.3199 112.839 46.2477C112.717 46.2064 112.591 46.1609 112.463 46.1197L112.055 46.0874C111.776 46.0552 111.527 46.2202 111.297 46.2039C111.071 46.2468 110.848 46.2468 110.656 46.1764C110.472 46.1231 110.293 46.1025 110.181 46.1248C110.066 46.1437 110 46.1553 110 46.1553C110 46.1553 110.259 46.1704 110.626 46.3834C110.809 46.4818 111.039 46.5596 111.303 46.5321C111.561 46.5579 111.816 46.4105 112.061 46.4634Z" fill="black"/>
<path d="M123.392 42.3498C123.548 42.5178 123.692 42.7145 123.842 42.8997C124.142 43.2761 124.399 43.7143 124.788 44.0141L124.794 44.0202H124.799C124.973 44.079 125.15 44.1645 125.327 44.1997L125.846 44.2732C126.007 44.2848 126.175 44.3084 126.347 44.363C126.436 44.3935 126.518 44.3849 126.583 44.4451L126.794 44.5847C126.944 44.6581 127.036 44.8669 127.166 45.0156C127.289 45.2038 127.407 45.4138 127.552 45.5406C127.627 45.6183 127.679 45.6845 127.774 45.7653C127.867 45.8121 127.962 45.874 128.052 45.8757C128.236 45.9079 128.402 45.8933 128.569 45.9079L128.922 46.0226L129.099 46.0832C129.114 46.0875 129.125 46.0905 129.14 46.0961C129.156 46.1021 129.167 46.1137 129.192 46.1107C129.166 46.0712 129.136 46.0694 129.108 46.0488L128.938 45.953L128.598 45.7661L128.596 45.7648L128.59 45.7631C128.416 45.706 128.235 45.7043 128.079 45.6574C127.995 45.6458 127.932 45.584 127.864 45.5487L127.676 45.321C127.533 45.169 127.447 44.9696 127.337 44.7991C127.203 44.6341 127.095 44.3931 126.919 44.2874L126.661 44.1108C126.576 44.0373 126.475 44.0404 126.398 44.0081C126.353 43.9935 126.304 43.9935 126.257 43.9815C126.288 43.9725 126.333 43.9609 126.404 43.945C126.523 43.9209 126.698 43.8522 126.901 43.8582C127.1 43.8316 127.332 43.8376 127.589 43.8612C127.842 43.8565 128.115 43.9201 128.388 43.951C128.935 44.0197 129.486 44.1065 129.907 44.0846C130.327 44.0687 130.602 43.9922 130.602 43.9922C130.602 43.9922 130.323 43.9583 129.916 43.8732C129.509 43.7912 128.966 43.67 128.413 43.5789C128.133 43.5613 127.856 43.5171 127.591 43.5347C127.329 43.5287 127.08 43.5935 126.868 43.652C126.654 43.6859 126.506 43.8316 126.392 43.8844C126.308 43.9355 126.262 43.9639 126.239 43.9785C126.12 43.9476 126.001 43.914 125.874 43.911L125.361 43.8582C125.194 43.8316 125.042 43.7607 124.881 43.7138C124.565 43.4728 124.254 43.0845 123.941 42.7377C123.783 42.5616 123.619 42.3906 123.437 42.2527C123.353 42.1707 123.251 42.1277 123.159 42.0731C123.068 42.0014 122.956 42.0289 122.862 42.0057C122.958 42.0512 123.06 42.0409 123.144 42.1277C123.227 42.1973 123.316 42.2531 123.392 42.3498Z" fill="black"/>
<path d="M122.832 44.8995C122.879 44.6525 122.926 44.4832 122.926 44.4832C122.926 44.4832 122.957 44.6525 122.981 44.9141C123.01 45.1813 122.985 45.5152 122.965 45.855C122.944 46.172 122.892 46.487 122.888 46.7546C122.867 47.0137 122.84 47.1868 122.84 47.1868C122.84 47.1868 122.791 47.0223 122.741 46.7739C122.674 46.5338 122.697 46.1725 122.704 45.8107C122.74 45.4756 122.791 45.1401 122.832 44.8995Z" fill="black"/>
<path d="M128.185 49.3482C128.233 49.1042 128.279 48.9336 128.279 48.9336C128.279 48.9336 128.31 49.1011 128.334 49.3628C128.364 49.6317 128.338 49.9655 128.318 50.3062C128.297 50.6241 128.246 50.9386 128.242 51.205C128.221 51.4636 128.193 51.6372 128.193 51.6372C128.193 51.6372 128.144 51.4722 128.094 51.2239C128.028 50.9824 128.051 50.6211 128.057 50.2611C128.094 49.9273 128.144 49.5909 128.185 49.3482Z" fill="black"/>
<path d="M120.896 50.9769C120.925 50.7685 120.945 50.6624 120.95 50.4918C120.951 50.3363 120.94 50.1799 120.93 50.036C120.88 49.4496 120.904 49.0303 120.904 49.0303C120.904 49.0303 120.927 49.1261 120.973 49.2915C121.025 49.4517 121.079 49.6889 121.141 49.9827C121.168 50.1327 121.185 50.2998 121.196 50.4854C121.207 50.659 121.178 50.9073 121.146 51.0649C121.081 51.4323 121.064 51.7897 121.029 52.197C120.965 52.9879 120.902 53.7793 120.854 54.3726C120.794 54.9667 120.753 55.3607 120.753 55.3607C120.753 55.3607 120.718 53.7612 120.798 52.1648C120.823 51.7785 120.841 51.336 120.896 50.9769Z" fill="black"/>
<path d="M119.353 44.5408L119.138 45.3579C118.949 45.8786 118.68 46.349 118.513 46.8134C118.41 47.0283 118.359 47.3019 118.318 47.5885C118.257 47.878 118.262 48.0916 118.265 48.391C118.272 48.9469 118.33 49.5656 118.122 50.1804C118.028 50.4111 117.884 50.7024 117.7 50.8772C117.499 51.0598 117.314 51.1019 117.125 51.217C116.757 51.4168 116.411 51.7244 116.051 51.974L114.974 52.7345L114.959 52.7078L114.963 52.7048L115.142 52.5355L115.104 52.5798L115.99 51.7932C116.343 51.5126 116.671 51.1801 117.043 50.9391C117.22 50.8128 117.436 50.7423 117.573 50.604C117.716 50.4527 117.814 50.2646 117.916 50.0017C118.059 49.5574 118.02 48.9783 118.005 48.4005C117.999 48.1281 118.014 47.7608 118.075 47.5004C118.119 47.2224 118.173 46.9445 118.295 46.6725C118.507 46.1243 118.755 45.705 118.962 45.223L119.202 44.4493L119.367 43.6407C119.467 43.0848 119.593 42.5353 119.741 42C119.631 42.5542 119.547 43.1101 119.49 43.6807L119.353 44.5408Z" fill="black"/>
<path d="M114.491 50.1129C114.586 50.1099 114.692 50.0837 114.803 50.0661C114.901 50.0339 115.008 49.9587 115.118 49.9157C115.344 49.847 115.558 49.6013 115.833 49.5351L116.234 49.4247C116.366 49.4217 116.496 49.4187 116.621 49.4157C116.874 49.3963 117.094 49.4775 117.291 49.5007C117.678 49.5789 117.937 49.6464 117.937 49.6464C117.937 49.6464 117.676 49.6863 117.285 49.7125C117.091 49.7198 116.859 49.7095 116.625 49.7417C116.506 49.7516 116.384 49.7624 116.261 49.7723L115.902 49.899C115.656 49.9325 115.434 50.1649 115.177 50.2324C114.927 50.3531 114.692 50.3591 114.496 50.3269C114.105 50.247 113.852 50.3252 113.852 50.3252C113.852 50.3252 113.914 50.2917 114.021 50.2324C114.126 50.1684 114.303 50.1245 114.491 50.1129Z" fill="black"/>
<path d="M128.616 47.7603L128.62 47.7632L128.621 47.7676L128.616 47.7603Z" fill="black"/>
<path d="M130.541 46.4633L130.172 46.4663C130.05 46.5002 129.93 46.5337 129.813 46.5647C129.581 46.6162 129.356 46.7073 129.168 46.7679C128.786 46.8826 128.526 46.9342 128.526 46.9342C128.526 46.9342 128.765 46.7782 129.128 46.5651C129.315 46.4723 129.514 46.3198 129.763 46.2476C129.885 46.2064 130.011 46.1608 130.139 46.1196L130.547 46.0874C130.826 46.0552 131.075 46.2201 131.305 46.2038C131.531 46.2468 131.754 46.2468 131.946 46.1763C132.13 46.123 132.309 46.1024 132.421 46.1248C132.535 46.1437 132.602 46.1553 132.602 46.1553C132.602 46.1553 132.343 46.1703 131.976 46.3834C131.793 46.4818 131.563 46.5595 131.299 46.532C131.041 46.5578 130.786 46.4104 130.541 46.4633Z" fill="black"/>
<path d="M119.21 42.3497C119.054 42.5177 118.91 42.7145 118.76 42.8997C118.46 43.276 118.203 43.7142 117.814 44.0141L117.807 44.0201H117.803C117.629 44.079 117.452 44.1645 117.275 44.1997L116.756 44.2731C116.595 44.2847 116.427 44.3084 116.255 44.3629C116.166 44.3934 116.084 44.3848 116.019 44.445L115.808 44.5846C115.658 44.6581 115.566 44.8669 115.436 45.0155C115.313 45.2037 115.194 45.4138 115.05 45.5405C114.974 45.6183 114.923 45.6844 114.828 45.7652C114.735 45.812 114.64 45.8739 114.55 45.8756C114.366 45.9078 114.2 45.8932 114.033 45.9078L113.68 46.0226L113.503 46.0831C113.488 46.0874 113.477 46.0904 113.462 46.096C113.446 46.102 113.435 46.1136 113.41 46.1106C113.436 46.0711 113.466 46.0694 113.494 46.0488L113.664 45.953L114.004 45.7661L114.005 45.7648L114.012 45.7631C114.186 45.7059 114.367 45.7042 114.523 45.6574C114.607 45.6458 114.67 45.5839 114.738 45.5487L114.926 45.321C115.069 45.1689 115.155 44.9696 115.265 44.799C115.398 44.634 115.507 44.393 115.682 44.2873L115.941 44.1107C116.026 44.0373 116.127 44.0403 116.204 44.0081C116.249 43.9935 116.298 43.9935 116.345 43.9814C116.314 43.9724 116.269 43.9608 116.198 43.9449C116.078 43.9209 115.904 43.8521 115.701 43.8581C115.502 43.8315 115.27 43.8375 115.013 43.8611C114.76 43.8564 114.487 43.92 114.214 43.9509C113.667 44.0197 113.116 44.1065 112.694 44.0845C112.275 44.0686 112 43.9922 112 43.9922C112 43.9922 112.279 43.9582 112.686 43.8732C113.093 43.7911 113.636 43.67 114.189 43.5789C114.469 43.5613 114.746 43.517 115.011 43.5346C115.273 43.5286 115.522 43.5935 115.734 43.6519C115.948 43.6859 116.096 43.8315 116.21 43.8843C116.294 43.9355 116.34 43.9638 116.363 43.9784C116.482 43.9475 116.601 43.914 116.728 43.911L117.241 43.8581C117.408 43.8315 117.56 43.7606 117.721 43.7138C118.036 43.4728 118.348 43.0844 118.661 42.7377C118.819 42.5615 118.983 42.3906 119.164 42.2526C119.249 42.1706 119.35 42.1276 119.443 42.0731C119.534 42.0013 119.646 42.0288 119.74 42.0056C119.644 42.0512 119.542 42.0408 119.458 42.1276C119.375 42.1972 119.286 42.2531 119.21 42.3497Z" fill="black"/>
<path fill-rule="evenodd" clip-rule="evenodd" d="M137.764 20.2389L132.231 13.1971C131.982 12.8796 131.622 12.67 131.23 12.6143C130.839 12.5586 130.449 12.6615 130.145 12.9002L127.28 15.1512C126.647 15.6485 126.554 16.5881 127.014 17.174L128.485 19.0458C129.077 19.799 128.333 21.1848 128.677 21.6228C129.021 22.0608 130.61 21.7507 131.139 22.4239L132.606 24.2913C132.856 24.6086 133.216 24.818 133.608 24.8734C133.999 24.9289 134.39 24.8259 134.694 24.587L137.559 22.3361C137.709 22.2179 137.834 22.0699 137.926 21.9005C138.017 21.7311 138.074 21.5437 138.093 21.349C138.112 21.1542 138.093 20.956 138.037 20.7655C137.98 20.575 137.887 20.3961 137.764 20.2389V20.2389Z" fill="#F05161"/>
<path d="M133.838 17.63C133.707 17.4632 133.532 17.3374 133.334 17.2683C133.136 17.1993 132.925 17.1903 132.728 17.2423C132.53 17.2944 132.355 17.4052 132.224 17.5608C132.093 17.7164 132.012 17.9097 131.992 18.1164C131.971 18.323 132.013 18.5337 132.11 18.7218C132.207 18.9098 132.357 19.0669 132.539 19.173C132.721 19.2791 132.928 19.3295 133.134 19.3179C133.339 19.3063 133.534 19.2331 133.694 19.1077C133.907 18.9392 134.043 18.689 134.07 18.4121C134.097 18.1351 134.014 17.8539 133.838 17.63V17.63Z" fill="white"/>
<path d="M129.852 18.3757C129.845 18.3666 129.839 18.3561 129.836 18.345C129.832 18.3338 129.831 18.3221 129.832 18.3106C129.833 18.2991 129.836 18.2881 129.842 18.2781C129.847 18.2681 129.854 18.2593 129.863 18.2524L130.05 18.1055C130.431 17.8062 130.911 17.7785 131.224 18.1766L132.69 20.0424C133.002 20.4405 132.862 20.9002 132.483 21.1984L132.294 21.3464C132.285 21.3533 132.275 21.3584 132.264 21.3612C132.253 21.364 132.242 21.3646 132.23 21.3628C132.219 21.3611 132.208 21.3571 132.198 21.351C132.188 21.345 132.179 21.337 132.172 21.3276L129.852 18.3757Z" fill="white"/>
<path fill-rule="evenodd" clip-rule="evenodd" d="M126.478 6.00244L117.522 6.01632C117.119 6.01694 116.732 6.17105 116.447 6.44473C116.161 6.71841 116.002 7.08926 116.002 7.47568L116.008 11.1191C116.009 11.9241 116.691 12.5768 117.437 12.5757L119.817 12.572C120.773 12.5705 121.407 14.0103 121.964 14.0094C122.521 14.0086 123.255 12.5667 124.113 12.5653L126.488 12.5616C126.892 12.5605 127.279 12.406 127.564 12.1321C127.849 11.8581 128.008 11.4871 128.008 11.1005L128.002 7.45709C128.001 7.07082 127.84 6.70074 127.554 6.42805C127.268 6.15535 126.881 6.00229 126.478 6.00244V6.00244Z" fill="#F05161"/>
<path d="M123.051 7.48274C123.251 7.48206 123.447 7.53612 123.616 7.63855C123.885 7.81668 124.077 8.0833 124.154 8.38769C124.231 8.69207 124.189 9.013 124.035 9.28942C123.808 9.704 122.862 10.4799 122.052 11.0665C122.042 11.0749 122.028 11.0794 122.014 11.0791C122.001 11.0792 121.987 11.0747 121.977 11.0666C121.167 10.4825 120.217 9.70956 119.991 9.29568C119.835 9.01983 119.792 8.69892 119.868 8.39418C119.944 8.08945 120.135 7.82223 120.404 7.64353C120.572 7.54002 120.768 7.4853 120.968 7.48597C121.128 7.47148 121.29 7.49078 121.441 7.54252C121.592 7.59426 121.73 7.67716 121.844 7.78538L122.019 8.01383L122.194 7.78484C122.306 7.67426 122.443 7.5896 122.595 7.53725C122.746 7.48491 122.908 7.46625 123.068 7.48272" fill="white"/>
<path fill-rule="evenodd" clip-rule="evenodd" d="M115.762 13.5531L107.418 16.8061C107.042 16.9528 106.737 17.2365 106.57 17.5948C106.404 17.953 106.389 18.3566 106.529 18.7166L107.853 22.1111C108.145 22.8612 109.017 23.2228 109.712 22.9521L111.929 22.0874C112.822 21.7395 113.933 22.8529 114.451 22.6505C114.97 22.4482 115.134 20.8379 115.932 20.5269L118.145 19.6642C118.521 19.517 118.826 19.233 118.992 18.8745C119.159 18.5159 119.173 18.1122 119.033 17.7521L117.71 14.3575C117.64 14.1793 117.535 14.0171 117.399 13.8801C117.264 13.7432 117.101 13.6343 116.92 13.5596C116.739 13.4849 116.544 13.4459 116.345 13.4448C116.146 13.4436 115.948 13.4804 115.762 13.5531V13.5531Z" fill="#F05161"/>
<path d="M112.127 16.5535C111.929 16.6305 111.758 16.762 111.634 16.9311C111.511 17.1003 111.441 17.2996 111.434 17.5039C111.426 17.7081 111.481 17.9082 111.592 18.0787C111.703 18.2492 111.865 18.3825 112.057 18.4617C112.249 18.541 112.462 18.5627 112.671 18.524C112.879 18.4853 113.072 18.388 113.227 18.2445C113.381 18.1009 113.489 17.9174 113.538 17.7173C113.586 17.5172 113.573 17.3095 113.499 17.1203C113.4 16.8669 113.2 16.665 112.942 16.5588C112.685 16.4526 112.392 16.4506 112.127 16.5535V16.5535Z" fill="white"/>
<path d="M111.685 20.5843C111.674 20.5888 111.662 20.5911 111.65 20.5912C111.639 20.5914 111.627 20.5892 111.617 20.5849C111.606 20.5806 111.596 20.5743 111.588 20.5663C111.58 20.5582 111.574 20.5487 111.57 20.5382L111.483 20.3167C111.307 19.8653 111.42 19.3981 111.892 19.2142L114.103 18.3522C114.574 18.1683 114.973 18.436 115.149 18.8857L115.236 19.1089C115.24 19.1194 115.242 19.1306 115.241 19.142C115.241 19.1533 115.238 19.1645 115.233 19.1749C115.228 19.1853 115.221 19.1947 115.212 19.2025C115.204 19.2104 115.193 19.2165 115.182 19.2206L111.685 20.5843Z" fill="white"/>
<path d="M9.48 42.42C7.76 42.42 6.1 42.21 4.5 41.79C2.92 41.35 1.63 40.79 0.63 40.11L2.58 35.73C3.52 36.33 4.6 36.83 5.82 37.23C7.06 37.61 8.29 37.8 9.51 37.8C10.33 37.8 10.99 37.73 11.49 37.59C11.99 37.43 12.35 37.23 12.57 36.99C12.81 36.73 12.93 36.43 12.93 36.09C12.93 35.61 12.71 35.23 12.27 34.95C11.83 34.67 11.26 34.44 10.56 34.26C9.86 34.08 9.08 33.9 8.22 33.72C7.38 33.54 6.53 33.31 5.67 33.03C4.83 32.75 4.06 32.39 3.36 31.95C2.66 31.49 2.09 30.9 1.65 30.18C1.21 29.44 0.99 28.51 0.99 27.39C0.99 26.13 1.33 24.99 2.01 23.97C2.71 22.95 3.75 22.13 5.13 21.51C6.51 20.89 8.23 20.58 10.29 20.58C11.67 20.58 13.02 20.74 14.34 21.06C15.68 21.36 16.87 21.81 17.91 22.41L16.08 26.82C15.08 26.28 14.09 25.88 13.11 25.62C12.13 25.34 11.18 25.2 10.26 25.2C9.44 25.2 8.78 25.29 8.28 25.47C7.78 25.63 7.42 25.85 7.2 26.13C6.98 26.41 6.87 26.73 6.87 27.09C6.87 27.55 7.08 27.92 7.5 28.2C7.94 28.46 8.51 28.68 9.21 28.86C9.93 29.02 10.71 29.19 11.55 29.37C12.41 29.55 13.26 29.78 14.1 30.06C14.96 30.32 15.74 30.68 16.44 31.14C17.14 31.58 17.7 32.17 18.12 32.91C18.56 33.63 18.78 34.54 18.78 35.64C18.78 36.86 18.43 37.99 17.73 39.03C17.05 40.05 16.02 40.87 14.64 41.49C13.28 42.11 11.56 42.42 9.48 42.42ZM21.5238 42V21H31.1238C33.0438 21 34.6938 21.31 36.0738 21.93C37.4738 22.55 38.5538 23.45 39.3138 24.63C40.0738 25.79 40.4538 27.17 40.4538 28.77C40.4538 30.35 40.0738 31.72 39.3138 32.88C38.5538 34.04 37.4738 34.94 36.0738 35.58C34.6938 36.2 33.0438 36.51 31.1238 36.51H24.8238L27.4638 33.93V42H21.5238ZM27.4638 34.56L24.8238 31.83H30.7638C32.0038 31.83 32.9238 31.56 33.5238 31.02C34.1438 30.48 34.4538 29.73 34.4538 28.77C34.4538 27.79 34.1438 27.03 33.5238 26.49C32.9238 25.95 32.0038 25.68 30.7638 25.68H24.8238L27.4638 22.95V34.56ZM43.35 42V21H52.95C54.87 21 56.52 21.31 57.9 21.93C59.3 22.55 60.38 23.45 61.14 24.63C61.9 25.79 62.28 27.17 62.28 28.77C62.28 30.35 61.9 31.72 61.14 32.88C60.38 34.02 59.3 34.9 57.9 35.52C56.52 36.12 54.87 36.42 52.95 36.42H46.65L49.29 33.93V42H43.35ZM56.34 42L51.12 34.35H57.45L62.7 42H56.34ZM49.29 34.56L46.65 31.83H52.59C53.83 31.83 54.75 31.56 55.35 31.02C55.97 30.48 56.28 29.73 56.28 28.77C56.28 27.79 55.97 27.03 55.35 26.49C54.75 25.95 53.83 25.68 52.59 25.68H46.65L49.29 22.95V34.56ZM76.147 42.42C74.467 42.42 72.917 42.15 71.497 41.61C70.077 41.07 68.837 40.31 67.777 39.33C66.737 38.33 65.927 37.17 65.347 35.85C64.767 34.53 64.477 33.08 64.477 31.5C64.477 29.92 64.767 28.47 65.347 27.15C65.927 25.83 66.737 24.68 67.777 23.7C68.837 22.7 70.077 21.93 71.497 21.39C72.917 20.85 74.467 20.58 76.147 20.58C77.847 20.58 79.397 20.85 80.797 21.39C82.217 21.93 83.447 22.7 84.487 23.7C85.527 24.68 86.337 25.83 86.917 27.15C87.517 28.47 87.817 29.92 87.817 31.5C87.817 33.08 87.517 34.54 86.917 35.88C86.337 37.2 85.527 38.35 84.487 39.33C83.447 40.31 82.217 41.07 80.797 41.61C79.397 42.15 77.847 42.42 76.147 42.42ZM76.147 37.5C76.947 37.5 77.687 37.36 78.367 37.08C79.067 36.8 79.667 36.4 80.167 35.88C80.687 35.34 81.087 34.7 81.367 33.96C81.667 33.22 81.817 32.4 81.817 31.5C81.817 30.58 81.667 29.76 81.367 29.04C81.087 28.3 80.687 27.67 80.167 27.15C79.667 26.61 79.067 26.2 78.367 25.92C77.687 25.64 76.947 25.5 76.147 25.5C75.347 25.5 74.597 25.64 73.897 25.92C73.217 26.2 72.617 26.61 72.097 27.15C71.597 27.67 71.197 28.3 70.897 29.04C70.617 29.76 70.477 30.58 70.477 31.5C70.477 32.4 70.617 33.22 70.897 33.96C71.197 34.7 71.597 35.34 72.097 35.88C72.617 36.4 73.217 36.8 73.897 37.08C74.597 37.36 75.347 37.5 76.147 37.5ZM100.618 42.42C97.5181 42.42 95.0981 41.57 93.3581 39.87C91.6181 38.17 90.7481 35.76 90.7481 32.64V21H96.6881V32.46C96.6881 34.26 97.0381 35.55 97.7381 36.33C98.4581 37.11 99.4381 37.5 100.678 37.5C101.918 37.5 102.888 37.11 103.588 36.33C104.288 35.55 104.638 34.26 104.638 32.46V21H110.488V32.64C110.488 35.76 109.618 38.17 107.878 39.87C106.138 41.57 103.718 42.42 100.618 42.42ZM118.66 42V25.71H112.21V21H131.02V25.71H124.6V42H118.66ZM138.045 42V33.12L139.425 36.69L130.035 21H136.305L143.085 32.37H139.455L146.265 21H152.025L142.665 36.69L143.985 33.12V42H138.045ZM160.646 42.18C159.086 42.18 157.586 41.93 156.146 41.43C154.726 40.91 153.626 40.25 152.846 39.45L153.716 37.74C154.456 38.46 155.446 39.07 156.686 39.57C157.946 40.05 159.266 40.29 160.646 40.29C161.966 40.29 163.036 40.13 163.856 39.81C164.696 39.47 165.306 39.02 165.686 38.46C166.086 37.9 166.286 37.28 166.286 36.6C166.286 35.78 166.046 35.12 165.566 34.62C165.106 34.12 164.496 33.73 163.736 33.45C162.976 33.15 162.136 32.89 161.216 32.67C160.296 32.45 159.376 32.22 158.456 31.98C157.536 31.72 156.686 31.38 155.906 30.96C155.146 30.54 154.526 29.99 154.046 29.31C153.586 28.61 153.356 27.7 153.356 26.58C153.356 25.54 153.626 24.59 154.166 23.73C154.726 22.85 155.576 22.15 156.716 21.63C157.856 21.09 159.316 20.82 161.096 20.82C162.276 20.82 163.446 20.99 164.606 21.33C165.766 21.65 166.766 22.1 167.606 22.68L166.856 24.45C165.956 23.85 164.996 23.41 163.976 23.13C162.976 22.85 162.006 22.71 161.066 22.71C159.806 22.71 158.766 22.88 157.946 23.22C157.126 23.56 156.516 24.02 156.116 24.6C155.736 25.16 155.546 25.8 155.546 26.52C155.546 27.34 155.776 28 156.236 28.5C156.716 29 157.336 29.39 158.096 29.67C158.876 29.95 159.726 30.2 160.646 30.42C161.566 30.64 162.476 30.88 163.376 31.14C164.296 31.4 165.136 31.74 165.896 32.16C166.676 32.56 167.296 33.1 167.756 33.78C168.236 34.46 168.476 35.35 168.476 36.45C168.476 37.47 168.196 38.42 167.636 39.3C167.076 40.16 166.216 40.86 165.056 41.4C163.916 41.92 162.446 42.18 160.646 42.18ZM182.493 42.18C180.913 42.18 179.443 41.92 178.083 41.4C176.743 40.86 175.573 40.11 174.573 39.15C173.593 38.17 172.823 37.04 172.263 35.76C171.723 34.46 171.453 33.04 171.453 31.5C171.453 29.96 171.723 28.55 172.263 27.27C172.823 25.97 173.593 24.84 174.573 23.88C175.573 22.9 176.743 22.15 178.083 21.63C179.423 21.09 180.893 20.82 182.493 20.82C184.073 20.82 185.533 21.09 186.873 21.63C188.213 22.15 189.373 22.89 190.353 23.85C191.353 24.81 192.123 25.94 192.663 27.24C193.223 28.54 193.503 29.96 193.503 31.5C193.503 33.04 193.223 34.46 192.663 35.76C192.123 37.06 191.353 38.19 190.353 39.15C189.373 40.11 188.213 40.86 186.873 41.4C185.533 41.92 184.073 42.18 182.493 42.18ZM182.493 40.2C183.753 40.2 184.913 39.99 185.973 39.57C187.053 39.13 187.983 38.52 188.763 37.74C189.563 36.94 190.183 36.02 190.623 34.98C191.063 33.92 191.283 32.76 191.283 31.5C191.283 30.24 191.063 29.09 190.623 28.05C190.183 26.99 189.563 26.07 188.763 25.29C187.983 24.49 187.053 23.88 185.973 23.46C184.913 23.02 183.753 22.8 182.493 22.8C181.233 22.8 180.063 23.02 178.983 23.46C177.903 23.88 176.963 24.49 176.163 25.29C175.383 26.07 174.763 26.99 174.303 28.05C173.863 29.09 173.643 30.24 173.643 31.5C173.643 32.74 173.863 33.89 174.303 34.95C174.763 36.01 175.383 36.94 176.163 37.74C176.963 38.52 177.903 39.13 178.983 39.57C180.063 39.99 181.233 40.2 182.493 40.2ZM207.599 42.18C206.019 42.18 204.559 41.92 203.219 41.4C201.879 40.86 200.719 40.11 199.739 39.15C198.759 38.19 197.989 37.06 197.429 35.76C196.889 34.46 196.619 33.04 196.619 31.5C196.619 29.96 196.889 28.54 197.429 27.24C197.989 25.94 198.759 24.81 199.739 23.85C200.739 22.89 201.909 22.15 203.249 21.63C204.589 21.09 206.049 20.82 207.629 20.82C209.149 20.82 210.579 21.08 211.919 21.6C213.259 22.1 214.389 22.86 215.309 23.88L213.899 25.29C213.039 24.41 212.089 23.78 211.049 23.4C210.009 23 208.889 22.8 207.689 22.8C206.429 22.8 205.259 23.02 204.179 23.46C203.099 23.88 202.159 24.49 201.359 25.29C200.559 26.07 199.929 26.99 199.469 28.05C199.029 29.09 198.809 30.24 198.809 31.5C198.809 32.76 199.029 33.92 199.469 34.98C199.929 36.02 200.559 36.94 201.359 37.74C202.159 38.52 203.099 39.13 204.179 39.57C205.259 39.99 206.429 40.2 207.689 40.2C208.889 40.2 210.009 40 211.049 39.6C212.089 39.2 213.039 38.56 213.899 37.68L215.309 39.09C214.389 40.11 213.259 40.88 211.919 41.4C210.579 41.92 209.139 42.18 207.599 42.18ZM220.041 42V21H222.261V42H220.041ZM225.734 42L235.334 21H237.524L247.124 42H244.784L235.964 22.29H236.864L228.044 42H225.734ZM229.514 36.39L230.174 34.59H242.384L243.044 36.39H229.514ZM250.598 42V21H252.818V40.08H264.578V42H250.598Z" fill="black"/>
</svg>
