<svg width="32" height="32" viewBox="0 0 32 32" fill="none" xmlns="http://www.w3.org/2000/svg">
    <path d="M16 18.6667V29.3334H5.33331C5.33331 26.5044 6.45712 23.7913 8.45751 21.7909C10.4579 19.7905 13.171 18.6667 16 18.6667ZM16 17.3334C11.58 17.3334 7.99998 13.7534 7.99998 9.33337C7.99998 4.91337 11.58 1.33337 16 1.33337C20.42 1.33337 24 4.91337 24 9.33337C24 13.7534 20.42 17.3334 16 17.3334ZM19.46 25.0827C19.2909 24.3713 19.2909 23.6301 19.46 22.9187L18.1373 22.1547L19.4706 19.8454L20.7933 20.6094C21.3242 20.1065 21.9659 19.7357 22.6666 19.5267V18H25.3333V19.5267C26.0426 19.7374 26.6826 20.1134 27.2066 20.6094L28.5293 19.8454L29.8626 22.1547L28.54 22.9187C28.7088 23.6297 28.7088 24.3704 28.54 25.0814L29.8626 25.8454L28.5293 28.1547L27.2066 27.3907C26.6758 27.8935 26.034 28.2644 25.3333 28.4734V30H22.6666V28.4734C21.9659 28.2644 21.3242 27.8935 20.7933 27.3907L19.4706 28.1547L18.1373 25.8454L19.46 25.0827ZM24 22.6667C23.6464 22.6667 23.3072 22.8072 23.0572 23.0572C22.8071 23.3073 22.6666 23.6464 22.6666 24C22.6666 24.3537 22.8071 24.6928 23.0572 24.9429C23.3072 25.1929 23.6464 25.3334 24 25.3334C24.3536 25.3334 24.6927 25.1929 24.9428 24.9429C25.1928 24.6928 25.3333 24.3537 25.3333 24C25.3333 23.6464 25.1928 23.3073 24.9428 23.0572C24.6927 22.8072 24.3536 22.6667 24 22.6667Z" fill="white" />
</svg>
    