<?xml version="1.0" encoding="utf-8"?>
<!-- Generator: Adobe Illustrator 24.1.1, SVG Export Plug-In . SVG Version: 6.00 Build 0)  -->
<svg version="1.1" id="Layer_1" xmlns="http://www.w3.org/2000/svg" xmlns:xlink="http://www.w3.org/1999/xlink" x="0px" y="0px"
	 viewBox="0 0 1500 300" style="enable-background:new 0 0 1500 300;" xml:space="preserve">
<style type="text/css">
	.st0{fill:#231F20;}
	.st1{fill-rule:evenodd;clip-rule:evenodd;fill:#231F20;}
</style>
<g>
	<g>
		<path class="st0" d="M288.85,196.88c-7.13-2.07-12.86-4.76-17.19-8.08l7.59-16.85c4.14,3.04,9.07,5.48,14.77,7.32
			c5.71,1.84,11.41,2.76,17.12,2.76c6.35,0,11.05-0.94,14.08-2.83c3.04-1.88,4.56-4.39,4.56-7.52c0-2.3-0.9-4.21-2.69-5.73
			c-1.79-1.52-4.1-2.74-6.9-3.66c-2.81-0.92-6.61-1.93-11.39-3.04c-7.37-1.75-13.39-3.5-18.09-5.25c-4.69-1.75-8.72-4.56-12.08-8.42
			c-3.36-3.87-5.04-9.02-5.04-15.46c0-5.61,1.52-10.7,4.56-15.26c3.04-4.56,7.62-8.17,13.74-10.84c6.12-2.67,13.6-4,22.44-4
			c6.17,0,12.2,0.74,18.09,2.21c5.89,1.47,11.05,3.59,15.46,6.35l-6.9,16.98c-8.93-5.06-17.86-7.59-26.79-7.59
			c-6.26,0-10.89,1.01-13.88,3.04c-2.99,2.03-4.49,4.69-4.49,8.01c0,3.31,1.73,5.78,5.18,7.39c3.45,1.61,8.72,3.2,15.81,4.76
			c7.36,1.75,13.39,3.5,18.09,5.25c4.69,1.75,8.72,4.51,12.08,8.28c3.36,3.78,5.04,8.89,5.04,15.33c0,5.52-1.54,10.56-4.62,15.12
			c-3.09,4.56-7.71,8.17-13.88,10.84c-6.17,2.67-13.67,4-22.51,4C303.37,199.98,295.98,198.95,288.85,196.88z"/>
		<path class="st0" d="M431.48,105.95c6.3,2.85,11.16,6.9,14.57,12.15c3.4,5.25,5.11,11.46,5.11,18.64c0,7.09-1.7,13.28-5.11,18.57
			c-3.41,5.29-8.26,9.34-14.57,12.15c-6.31,2.81-13.74,4.21-22.3,4.21h-19.47v26.65h-22.37v-96.65h41.84
			C417.74,101.67,425.17,103.1,431.48,105.95z M423.27,149.1c3.5-2.9,5.25-7.02,5.25-12.36c0-5.43-1.75-9.6-5.25-12.5
			c-3.5-2.9-8.61-4.35-15.33-4.35h-18.23v33.55h18.23C414.66,153.45,419.77,152,423.27,149.1z"/>
		<path class="st0" d="M528.62,198.33l-18.64-26.93h-1.11H489.4v26.93h-22.37v-96.65h41.84c8.56,0,15.99,1.43,22.3,4.28
			c6.3,2.85,11.16,6.9,14.57,12.15c3.4,5.25,5.11,11.46,5.11,18.64c0,7.18-1.73,13.37-5.18,18.57c-3.45,5.2-8.35,9.18-14.71,11.94
			l21.68,31.07H528.62z M522.96,124.25c-3.5-2.9-8.61-4.35-15.33-4.35H489.4v33.69h18.23c6.72,0,11.83-1.47,15.33-4.42
			c3.5-2.94,5.25-7.09,5.25-12.43C528.2,131.31,526.45,127.15,522.96,124.25z"/>
		<path class="st0" d="M588.19,193.49c-8.06-4.33-14.36-10.29-18.92-17.88c-4.56-7.59-6.83-16.13-6.83-25.61
			c0-9.48,2.28-18.02,6.83-25.61c4.56-7.59,10.86-13.55,18.92-17.88c8.05-4.33,17.1-6.49,27.13-6.49c10.03,0,19.05,2.16,27.06,6.49
			c8.01,4.33,14.31,10.29,18.92,17.88c4.6,7.59,6.9,16.13,6.9,25.61c0,9.48-2.3,18.02-6.9,25.61c-4.6,7.59-10.91,13.55-18.92,17.88
			c-8.01,4.33-17.03,6.49-27.06,6.49C605.29,199.98,596.25,197.82,588.19,193.49z M630.79,176.99c4.6-2.62,8.22-6.28,10.84-10.98
			c2.62-4.69,3.94-10.03,3.94-16.02c0-5.98-1.31-11.32-3.94-16.02c-2.62-4.69-6.24-8.35-10.84-10.98c-4.6-2.62-9.76-3.94-15.46-3.94
			c-5.71,0-10.86,1.31-15.46,3.94c-4.6,2.62-8.22,6.28-10.84,10.98c-2.62,4.69-3.94,10.03-3.94,16.02c0,5.98,1.31,11.32,3.94,16.02
			c2.62,4.7,6.23,8.36,10.84,10.98c4.6,2.62,9.76,3.93,15.46,3.93C621.03,180.93,626.19,179.62,630.79,176.99z"/>
		<path class="st0" d="M695.76,188.52c-7.69-7.64-11.53-18.55-11.53-32.72v-54.13h22.37v53.3c0,17.31,7.18,25.96,21.54,25.96
			c6.99,0,12.33-2.09,16.02-6.28c3.68-4.19,5.52-10.75,5.52-19.68v-53.3h22.09v54.13c0,14.18-3.84,25.08-11.53,32.72
			c-7.69,7.64-18.43,11.46-32.24,11.46C714.19,199.98,703.44,196.17,695.76,188.52z"/>
		<path class="st0" d="M812.22,119.9h-30.93v-18.23h84.23v18.23h-30.93v78.43h-22.37V119.9z"/>
		<path class="st0" d="M922.13,164.08v34.24h-22.37v-34.52l-37.42-62.13h23.75l25.82,42.94l25.82-42.94h21.95L922.13,164.08z"/>
		<path class="st0" d="M979.36,195.7c-6.58-2.3-11.67-5.34-15.26-9.11l4-7.87c3.5,3.5,8.15,6.33,13.95,8.49
			c5.8,2.16,11.78,3.24,17.95,3.24c8.65,0,15.14-1.59,19.47-4.76c4.33-3.17,6.49-7.29,6.49-12.36c0-3.87-1.17-6.95-3.52-9.25
			c-2.35-2.3-5.22-4.07-8.63-5.31c-3.41-1.24-8.15-2.6-14.22-4.07c-7.27-1.84-13.07-3.61-17.4-5.32c-4.33-1.7-8.03-4.3-11.12-7.8
			c-3.08-3.5-4.62-8.24-4.62-14.22c0-4.88,1.29-9.32,3.86-13.32s6.54-7.2,11.88-9.6c5.34-2.39,11.97-3.59,19.88-3.59
			c5.52,0,10.93,0.76,16.22,2.28c5.29,1.52,9.87,3.61,13.74,6.28l-3.45,8.15c-4.05-2.67-8.38-4.67-12.98-6.01
			c-4.6-1.33-9.11-2-13.53-2c-8.47,0-14.84,1.64-19.12,4.9c-4.28,3.27-6.42,7.48-6.42,12.63c0,3.87,1.17,6.97,3.52,9.32
			c2.35,2.35,5.29,4.14,8.84,5.39c3.54,1.24,8.31,2.6,14.29,4.07c7.09,1.75,12.82,3.48,17.19,5.18c4.37,1.7,8.08,4.28,11.12,7.73
			c3.04,3.45,4.56,8.12,4.56,14.01c0,4.88-1.31,9.32-3.93,13.32c-2.63,4-6.65,7.18-12.08,9.53c-5.43,2.35-12.11,3.52-20.02,3.52
			C992.82,199.16,985.94,198.01,979.36,195.7z"/>
		<path class="st0" d="M1074.49,192.73c-7.78-4.28-13.85-10.15-18.22-17.6c-4.37-7.46-6.56-15.83-6.56-25.13
			c0-9.3,2.19-17.67,6.56-25.13c4.37-7.46,10.45-13.32,18.22-17.6c7.78-4.28,16.45-6.42,26.03-6.42s18.2,2.12,25.89,6.35
			c7.68,4.23,13.74,10.1,18.16,17.61c4.42,7.5,6.63,15.9,6.63,25.2c0,9.3-2.21,17.7-6.63,25.2c-4.42,7.5-10.47,13.37-18.16,17.61
			c-7.69,4.23-16.31,6.35-25.89,6.35S1082.27,197.02,1074.49,192.73z M1121.23,184.87c6.17-3.45,11-8.24,14.5-14.36
			c3.5-6.12,5.25-12.96,5.25-20.5c0-7.55-1.75-14.38-5.25-20.5c-3.5-6.12-8.33-10.91-14.5-14.36c-6.17-3.45-13.07-5.18-20.71-5.18
			c-7.64,0-14.57,1.73-20.78,5.18c-6.21,3.45-11.09,8.24-14.64,14.36c-3.55,6.12-5.32,12.96-5.32,20.5c0,7.55,1.77,14.38,5.32,20.5
			c3.54,6.12,8.42,10.91,14.64,14.36c6.21,3.45,13.14,5.18,20.78,5.18C1108.16,190.04,1115.07,188.31,1121.23,184.87z"/>
		<path class="st0" d="M1190.2,192.8c-7.69-4.23-13.72-10.1-18.09-17.61c-4.37-7.5-6.56-15.9-6.56-25.2c0-9.3,2.19-17.7,6.56-25.2
			c4.37-7.5,10.42-13.37,18.16-17.61c7.73-4.23,16.38-6.35,25.96-6.35c7.18,0,13.81,1.2,19.88,3.59
			c6.07,2.39,11.23,5.89,15.46,10.49l-6.49,6.49c-7.55-7.64-17.08-11.46-28.58-11.46c-7.64,0-14.59,1.75-20.85,5.25
			c-6.26,3.5-11.16,8.29-14.71,14.36c-3.55,6.07-5.32,12.89-5.32,20.44c0,7.55,1.77,14.36,5.32,20.43
			c3.54,6.07,8.44,10.86,14.71,14.36c6.26,3.5,13.21,5.25,20.85,5.25c11.6,0,21.13-3.86,28.58-11.6l6.49,6.49
			c-4.23,4.61-9.41,8.12-15.53,10.56c-6.12,2.44-12.77,3.66-19.95,3.66C1206.51,199.16,1197.88,197.04,1190.2,192.8z"/>
		<path class="st0" d="M1273.39,101.67h10.22v96.65h-10.22V101.67z"/>
		<path class="st0" d="M1375.7,172.51h-53.85l-11.6,25.82h-10.63l44.18-96.65h10.08l44.19,96.65h-10.77L1375.7,172.51z
			 M1371.97,164.22l-23.2-51.92l-23.2,51.92H1371.97z"/>
		<path class="st0" d="M1414.08,101.67h10.22v87.82h54.12v8.84h-64.34V101.67z"/>
	</g>
	<g>
		<path class="st1" d="M88.91,166.6c-0.84-0.9-0.79-2.31,0.12-3.15c0.9-0.84,2.31-0.79,3.15,0.11c0.84,0.9,0.79,2.31-0.12,3.15
			C91.15,167.55,89.74,167.5,88.91,166.6L88.91,166.6z M76.28,165.29c2.78,6.19,7.44,11.62,14,16.29c1.39,0.99,2.87,1.95,4.43,2.87
			c1.01,0.6,2.06,1.18,3.14,1.75l5.86-5.45l-10.13-10.9c-2.25,1.44-5.29,1.11-7.17-0.92c-2.12-2.28-1.99-5.86,0.29-7.98
			c2.28-2.12,5.86-1.99,7.98,0.29c1.89,2.03,1.99,5.08,0.39,7.22l10.13,10.9l5.87-5.45c-0.49-1.12-0.99-2.2-1.52-3.26
			c-0.8-1.63-1.65-3.17-2.54-4.63c-4.18-6.88-9.25-11.93-15.22-15.15L76.28,165.29L76.28,165.29z M99.57,187.08l5.38-5l1.49-1.39
			l5.38-5c0.4,0.97,0.78,1.96,1.15,2.98l-10.5,9.76C101.47,188,100.51,187.55,99.57,187.08L99.57,187.08z M114.61,179.78l0.6-0.56
			c-2.15-5.93-4.73-11.74-8.33-16.94l6.09,1.87l11.91,22.5L114.61,179.78L114.61,179.78z M89.9,149.93
			c-4.94-2.28-10.45-3.39-16.54-3.33c-0.51,6.07,0.2,11.64,2.11,16.73L89.9,149.93L89.9,149.93z M103.44,190.16l6.1,10.75
			l-21.56-13.53l-1.42-6.21c4.96,4,10.5,6.95,16.29,9.55L103.44,190.16L103.44,190.16z M111.43,195.95l20.39,13.56l-12.03-21.33
			l-8.09-5.69l-5.36,4.98L111.43,195.95z"/>
		<path class="st1" d="M135.72,43.49c-18.07,0-35.08,4.54-49.99,12.47c-9.3,1.2-17.63,3.39-24.89,6.55
			c-11.7,5.1-20.59,12.13-26.43,20.89c-5.85,8.77-8.81,18.69-8.81,29.48c0,12.43,3.32,22.54,9.85,30.06
			c6.45,7.42,14.29,12.88,23.3,16.23c3.85,1.44,8.2,2.87,13.03,4.32c-0.45-1.32-0.83-2.67-1.13-4.05c-3.91-1.19-7.47-2.4-10.67-3.59
			c-8.44-3.15-15.8-8.28-21.85-15.24c-5.96-6.85-8.98-16.19-8.98-27.73c0-10.08,2.77-19.34,8.21-27.52
			c5.46-8.19,13.84-14.78,24.9-19.61c11.17-4.86,25.03-7.34,41.22-7.34c11.32,0,22.54,1.37,33.37,4.08
			c10.23,2.56,19.34,6.22,27.11,10.87l-11.57,28.49c-16.31-8.92-32.84-13.44-49.16-13.44c-12,0-21.05,2.01-26.92,5.98
			c-6.07,4.12-9.16,9.65-9.16,16.43c0,6.91,3.6,12.09,10.7,15.4c6.53,3.06,16.59,6.09,29.87,9.02c13.61,3.24,24.9,6.52,33.59,9.74
			c8.45,3.15,15.81,8.2,21.87,14.99c0.66,0.75,1.28,1.53,1.87,2.34c-0.59,0.49-1.18,1.02-1.77,1.61c-0.59,0.59-1.13,1.22-1.63,1.87
			c-3.28-1.98-7.9-1.29-11.08,1.89c-3.08,3.1-3.79,7.58-1.99,10.83c-5.82,3.28-8.72,9.65-7.36,16.24c-4.3,1.79-6.98,5.81-7.97,10.07
			c-0.48,2.01-0.57,4.06-0.28,5.96c-1.71-0.25-3.54-0.19-5.33,0.17c-4.48,0.9-8.8,3.65-10.65,8.16c-6.6-1.33-12.96,1.61-16.21,7.44
			c-3.27-1.79-7.74-1.05-10.82,2.04c-3.17,3.18-3.84,7.82-1.84,11.09c-0.62,0.48-1.22,1-1.78,1.56
			c-10.25-0.74-20.29-2.52-29.97-5.33c-12.45-3.62-22.68-8.31-30.41-13.96l12.72-28.22c7.5,5.19,16.35,9.45,26.33,12.67
			c10.78,3.47,21.72,5.24,32.53,5.24c10.75,0,18.9-1.39,24.8-4.22l-3.53-2.34c-5.25,2.01-12.38,3.02-21.27,3.02
			c-10.44,0-21.02-1.71-31.45-5.07c-10.42-3.36-19.54-7.88-27.1-13.42l-1.76-1.29l-15.67,34.74l1.11,0.85
			c8.21,6.29,19.21,11.48,32.7,15.39c5.15,1.49,10.4,2.71,15.73,3.62c5.32,0.93,10.73,1.56,16.19,1.92
			c8.67,4.44,18.03,7.73,27.87,9.66c6.65,1.3,13.51,1.99,20.55,1.99c58.83,0,106.51-47.69,106.51-106.51
			C242.23,91.17,194.54,43.49,135.72,43.49z M92.48,236.08c1.4-4.38,4.83-5.69,8.14-4.43C97.3,231.01,94.44,232.68,92.48,236.08z
			 M102.37,241.56c0.93-0.17,1.87-0.21,2.84-0.12C104.27,241.49,103.32,241.53,102.37,241.56z M111.5,239.73
			c1.4-4.38,4.83-5.69,8.14-4.43C116.32,234.66,113.46,236.32,111.5,239.73z M104.83,234.52c2.55-7.99,8.8-10.39,14.85-8.08
			C113.62,225.26,108.4,228.29,104.83,234.52z M128.06,236.46c1.4-4.38,4.83-5.69,8.13-4.42
			C132.88,231.4,130.01,233.06,128.06,236.46z M123.14,228.79c2.55-7.99,8.81-10.4,14.85-8.08
			C131.94,219.53,126.71,222.57,123.14,228.79z M158.06,170.19c-3.39,1.96-5.04,4.84-4.39,8.15
			C152.39,175.04,153.69,171.6,158.06,170.19z M142.91,215.78c-2.34-6.04,0.03-12.31,8-14.9
			C144.72,204.48,141.7,209.72,142.91,215.78z M148.55,197.43c-2.34-6.04,0.03-12.31,8-14.9
			C150.36,186.13,147.34,191.38,148.55,197.43z M154.24,213.91c-1.28-3.31,0.01-6.74,4.38-8.16
			C155.22,207.72,153.57,210.6,154.24,213.91z M157.41,197.34c-1.28-3.31,0.02-6.74,4.39-8.16
			C158.4,191.15,156.76,194.03,157.41,197.34z M165.92,167.24l0.08,0.64c-0.84,0.55-1.63,1.2-2.36,1.98
			C164.31,168.85,165.07,167.97,165.92,167.24z M164.27,186.23c-1.61-4.16-0.99-8.43,2.17-11.53c0,0.13,0.03,1.24,0.04,1.64
			C164.38,179.22,163.55,182.6,164.27,186.23z M130.89,200.65c2.16-2.92,3.24-6.29,3.24-10.11c0-4.83-1.9-8.89-5.66-12.06
			c-1.77-1.49-3.79-2.85-6.06-4.05l3.41,6.44c0.12,0.1,0.25,0.2,0.36,0.3c2.96,2.51,4.4,5.57,4.4,9.36c0,2.45-0.55,4.66-1.67,6.63
			L130.89,200.65z"/>
	</g>
</g>
</svg>
