<svg width="20" height="22" viewBox="0 0 20 22" fill="none" xmlns="http://www.w3.org/2000/svg">
<path d="M18 20V18.3929C18 15.7301 15.4413 13.5714 12.2853 13.5714H7.71467C4.55867 13.5714 2 15.7301 2 18.3929V20M14 5.85714C14 6.88012 13.5786 7.8612 12.8284 8.58456C12.0783 9.30791 11.0609 9.71429 10 9.71429C8.93913 9.71429 7.92172 9.30791 7.17157 8.58456C6.42143 7.8612 6 6.88012 6 5.85714C6 4.83416 6.42143 3.85309 7.17157 3.12973C7.92172 2.40638 8.93913 2 10 2C11.0609 2 12.0783 2.40638 12.8284 3.12973C13.5786 3.85309 14 4.83416 14 5.85714Z" stroke="#8C8C8C" stroke-width="3" stroke-linecap="round" stroke-linejoin="round"/>
</svg>
