<svg width="20" height="20" viewBox="0 0 20 20" fill="none" xmlns="http://www.w3.org/2000/svg">
<path d="M10 2V12M10 12C9.54534 12 9.10931 12.158 8.78782 12.4393C8.46633 12.7206 8.28571 13.1022 8.28571 13.5C8.28571 13.8978 8.46633 14.2794 8.78782 14.5607C9.10931 14.842 9.54534 15 10 15C10.4547 15 10.8907 14.842 11.2122 14.5607C11.5337 14.2794 11.7143 13.8978 11.7143 13.5C11.7143 13.1022 11.5337 12.7206 11.2122 12.4393C10.8907 12.158 10.4547 12 10 12ZM10 18V17.5M16.2857 2V7M16.2857 7C15.8311 7 15.395 7.15804 15.0735 7.43934C14.752 7.72064 14.5714 8.10218 14.5714 8.5C14.5714 8.89782 14.752 9.27936 15.0735 9.56066C15.395 9.84196 15.8311 10 16.2857 10C16.7404 10 17.1764 9.84196 17.4979 9.56066C17.8194 9.27936 18 8.89782 18 8.5C18 8.10218 17.8194 7.72064 17.4979 7.43934C17.1764 7.15804 16.7404 7 16.2857 7ZM16.2857 18V12.44M3.71429 2V4M3.71429 4C3.25963 4 2.82359 4.15804 2.5021 4.43934C2.18061 4.72064 2 5.10218 2 5.5C2 5.89782 2.18061 6.27936 2.5021 6.56066C2.82359 6.84196 3.25963 7 3.71429 7C4.16894 7 4.60498 6.84196 4.92647 6.56066C5.24796 6.27936 5.42857 5.89782 5.42857 5.5C5.42857 5.10218 5.24796 4.72064 4.92647 4.43934C4.60498 4.15804 4.16894 4 3.71429 4ZM3.71429 18V9.56" stroke="#8C8C8C" stroke-width="3" stroke-linecap="round" stroke-linejoin="round"/>
</svg>
